<?xml version="1.0" encoding="UTF-8"?>
<svg xmlns="http://www.w3.org/2000/svg" xmlns:xlink="http://www.w3.org/1999/xlink" width="21pt" height="23pt" viewBox="0 0 21 23" version="1.1">
<g id="surface1">
<path style="fill:none;stroke-width:0.4802;stroke-linecap:round;stroke-linejoin:round;stroke:rgb(20%,20%,20%);stroke-opacity:1;stroke-miterlimit:10;" d="M 36.497106 2.803431 L 3.298495 2.803431 " transform="matrix(0.523836,0,0,0.509978,0.0494734,0)"/>
<path style="fill:none;stroke-width:0.4802;stroke-linecap:round;stroke-linejoin:round;stroke:rgb(20%,20%,20%);stroke-opacity:1;stroke-miterlimit:10;" d="M 3.201554 1.102989 L 36.698446 1.102989 " transform="matrix(0.523836,0,0,0.509978,0.0494734,0)"/>
<path style="fill:none;stroke-width:0.4802;stroke-linecap:round;stroke-linejoin:round;stroke:rgb(20%,20%,20%);stroke-opacity:1;stroke-miterlimit:10;" d="M 3.596776 1.999168 C 3.596776 2.772792 2.970387 3.400883 2.202315 3.400883 C 1.426786 3.400883 0.800397 2.772792 0.800397 1.999168 C 0.800397 1.225543 1.426786 0.597452 2.202315 0.597452 C 2.970387 0.597452 3.596776 1.225543 3.596776 1.999168 Z M 3.596776 1.999168 " transform="matrix(0.523836,0,0,0.509978,0.0494734,0)"/>
<path style="fill:none;stroke-width:0.4802;stroke-linecap:round;stroke-linejoin:round;stroke:rgb(20%,20%,20%);stroke-opacity:1;stroke-miterlimit:10;" d="M 39.099603 1.999168 C 39.099603 2.772792 38.473214 3.400883 37.697685 3.400883 C 36.929613 3.400883 36.303224 2.772792 36.303224 1.999168 C 36.303224 1.225543 36.929613 0.597452 37.697685 0.597452 C 38.473214 0.597452 39.099603 1.225543 39.099603 1.999168 Z M 39.099603 1.999168 " transform="matrix(0.523836,0,0,0.509978,0.0494734,0)"/>
<path style="fill:none;stroke-width:0.4802;stroke-linecap:round;stroke-linejoin:round;stroke:rgb(20%,20%,20%);stroke-opacity:1;stroke-miterlimit:10;" d="M 11.702546 2.803431 L 3.499835 2.803431 L 3.596776 44.502548 L 4.297735 43.897435 C 4.998694 43.299983 5.997933 43.299983 6.698892 43.79786 L 6.900231 43.997011 C 7.399851 44.303397 7.996412 44.303397 8.399091 43.997011 C 9.10005 43.399558 10.099289 43.399558 10.800248 43.897435 L 11.001587 43.997011 C 11.501207 44.402972 12.097768 44.303397 12.500446 43.997011 C 13.201405 43.399558 14.200645 43.399558 14.901604 43.897435 L 14.998545 43.997011 C 15.498165 44.303397 16.102183 44.303397 16.497404 43.997011 C 17.198363 43.399558 18.197603 43.399558 18.898562 43.897435 L 19.80086 44.602123 L 19.897801 4.902174 " transform="matrix(0.523836,0,0,0.509978,0.0494734,0)"/>
<path style="fill:none;stroke-width:0.4802;stroke-linecap:round;stroke-linejoin:round;stroke:rgb(20%,20%,20%);stroke-opacity:1;stroke-miterlimit:10;" d="M 20.002199 44.602123 L 20.800099 43.997011 C 21.501058 43.399558 22.500298 43.399558 23.298198 43.897435 L 23.402596 43.997011 C 23.902216 44.303397 24.498776 44.303397 24.901455 43.997011 C 25.602414 43.399558 26.601653 43.399558 27.399554 43.897435 L 27.496495 43.997011 C 28.003571 44.402972 28.600132 44.303397 29.002811 43.997011 C 29.696313 43.399558 30.703009 43.399558 31.500909 43.897435 L 31.597851 43.997011 C 32.09747 44.303397 32.701488 44.303397 33.09671 43.997011 C 33.797669 43.399558 34.796908 43.399558 35.602265 43.897435 L 36.497106 44.602123 L 36.400165 2.803431 " transform="matrix(0.523836,0,0,0.509978,0.0494734,0)"/>
<path style="fill:none;stroke-width:0.4802;stroke-linecap:round;stroke-linejoin:round;stroke:rgb(20%,20%,20%);stroke-opacity:1;stroke-miterlimit:10;" d="M 7.60119 44.203821 L 7.60119 4.902174 " transform="matrix(0.523836,0,0,0.509978,0.0494734,0)"/>
<path style="fill:none;stroke-width:0.4802;stroke-linecap:round;stroke-linejoin:round;stroke:rgb(20%,20%,20%);stroke-opacity:1;stroke-miterlimit:10;" d="M 11.702546 44.203821 L 11.702546 4.902174 " transform="matrix(0.523836,0,0,0.509978,0.0494734,0)"/>
<path style="fill:none;stroke-width:0.4802;stroke-linecap:round;stroke-linejoin:round;stroke:rgb(20%,20%,20%);stroke-opacity:1;stroke-miterlimit:10;" d="M 15.796445 44.203821 L 15.796445 4.902174 " transform="matrix(0.523836,0,0,0.509978,0.0494734,0)"/>
<path style="fill:none;stroke-width:0.4802;stroke-linecap:round;stroke-linejoin:round;stroke:rgb(20%,20%,20%);stroke-opacity:1;stroke-miterlimit:10;" d="M 24.103555 44.203821 L 24.103555 4.902174 " transform="matrix(0.523836,0,0,0.509978,0.0494734,0)"/>
<path style="fill:none;stroke-width:0.4802;stroke-linecap:round;stroke-linejoin:round;stroke:rgb(20%,20%,20%);stroke-opacity:1;stroke-miterlimit:10;" d="M 28.197454 44.203821 L 28.197454 4.902174 " transform="matrix(0.523836,0,0,0.509978,0.0494734,0)"/>
<path style="fill:none;stroke-width:0.4802;stroke-linecap:round;stroke-linejoin:round;stroke:rgb(20%,20%,20%);stroke-opacity:1;stroke-miterlimit:10;" d="M 32.29881 44.203821 L 32.29881 4.902174 " transform="matrix(0.523836,0,0,0.509978,0.0494734,0)"/>
</g>
</svg>
