<?xml version="1.0" encoding="UTF-8"?>
<svg xmlns="http://www.w3.org/2000/svg" xmlns:xlink="http://www.w3.org/1999/xlink" width="40pt" height="48pt" viewBox="0 0 40 48" version="1.1">
<g id="surface1">
<path style=" stroke:none;fill-rule:nonzero;fill:rgb(100%,100%,100%);fill-opacity:1;" d="M 943.359375 -93.652344 L -303.136719 -93.652344 L -303.136719 159.851562 L 1812.566406 159.851562 L 1812.566406 -93.652344 Z M 943.359375 -93.652344 "/>
<path style=" stroke:none;fill-rule:nonzero;fill:rgb(68.627451%,68.627451%,68.627451%);fill-opacity:1;" d="M 4.960938 10.496094 L 34.601562 10.496094 L 34.601562 14.523438 L 4.960938 14.523438 Z M 4.960938 10.496094 "/>
<path style=" stroke:none;fill-rule:nonzero;fill:rgb(68.627451%,68.627451%,68.627451%);fill-opacity:1;" d="M 4.960938 17.03125 L 34.601562 17.03125 L 34.601562 21.0625 L 4.960938 21.0625 Z M 4.960938 17.03125 "/>
<path style=" stroke:none;fill-rule:nonzero;fill:rgb(68.627451%,68.627451%,68.627451%);fill-opacity:1;" d="M 4.960938 23.679688 L 34.601562 23.679688 L 34.601562 27.707031 L 4.960938 27.707031 Z M 4.960938 23.679688 "/>
<path style=" stroke:none;fill-rule:nonzero;fill:rgb(68.627451%,68.627451%,68.627451%);fill-opacity:1;" d="M 4.960938 30.539062 L 34.601562 30.539062 L 34.601562 34.570312 L 4.960938 34.570312 Z M 4.960938 30.539062 "/>
<path style=" stroke:none;fill-rule:nonzero;fill:rgb(68.627451%,68.627451%,68.627451%);fill-opacity:1;" d="M 4.960938 37.292969 L 34.601562 37.292969 L 34.601562 41.320312 L 4.960938 41.320312 Z M 4.960938 37.292969 "/>
<path style="fill:none;stroke-width:0.559;stroke-linecap:butt;stroke-linejoin:miter;stroke:rgb(20%,20%,20%);stroke-opacity:1;stroke-miterlimit:10;" d="M 0.301318 0.304118 L 35.998683 0.304118 L 35.998683 43.798264 L 0.301318 43.798264 Z M 0.301318 0.304118 " transform="matrix(1.101928,0,0,1.089407,0,0.145254)"/>
<path style="fill:none;stroke-width:0.54;stroke-linecap:butt;stroke-linejoin:miter;stroke:rgb(20%,20%,20%);stroke-opacity:1;stroke-miterlimit:10;" d="M 4.502051 6.901746 L 31.698693 6.901746 C 32.701906 6.901746 33.400255 6.098557 33.400255 5.198554 C 33.400255 4.198153 32.602648 3.498948 31.698693 3.498948 L 4.502051 3.498948 C 3.498838 3.498948 2.800488 4.302137 2.800488 5.198554 C 2.800488 6.202541 3.598096 6.901746 4.502051 6.901746 Z M 4.502051 6.901746 " transform="matrix(1.101928,0,0,1.089407,0,0.145254)"/>
<path style="fill:none;stroke-width:0.54;stroke-linecap:butt;stroke-linejoin:miter;stroke:rgb(20%,20%,20%);stroke-opacity:1;stroke-miterlimit:10;" d="M 4.502051 9.501355 L 31.400919 9.501355 L 31.400919 13.000967 L 4.502051 13.000967 Z M 4.502051 9.501355 " transform="matrix(1.101928,0,0,1.089407,0,0.145254)"/>
<path style="fill:none;stroke-width:0.54;stroke-linecap:butt;stroke-linejoin:miter;stroke:rgb(20%,20%,20%);stroke-opacity:1;stroke-miterlimit:10;" d="M 4.502051 15.697388 L 31.400919 15.697388 L 31.400919 19.200585 L 4.502051 19.200585 Z M 4.502051 15.697388 " transform="matrix(1.101928,0,0,1.089407,0,0.145254)"/>
<path style="fill:none;stroke-width:0.54;stroke-linecap:butt;stroke-linejoin:miter;stroke:rgb(20%,20%,20%);stroke-opacity:1;stroke-miterlimit:10;" d="M 4.502051 21.800194 L 31.400919 21.800194 L 31.400919 25.299806 L 4.502051 25.299806 Z M 4.502051 21.800194 " transform="matrix(1.101928,0,0,1.089407,0,0.145254)"/>
<path style="fill:none;stroke-width:0.54;stroke-linecap:butt;stroke-linejoin:miter;stroke:rgb(20%,20%,20%);stroke-opacity:1;stroke-miterlimit:10;" d="M 4.502051 28.003399 L 31.400919 28.003399 L 31.400919 31.499425 L 4.502051 31.499425 Z M 4.502051 28.003399 " transform="matrix(1.101928,0,0,1.089407,0,0.145254)"/>
<path style="fill:none;stroke-width:0.54;stroke-linecap:butt;stroke-linejoin:miter;stroke:rgb(20%,20%,20%);stroke-opacity:1;stroke-miterlimit:10;" d="M 4.502051 34.199432 L 31.400919 34.199432 L 31.400919 37.702629 L 4.502051 37.702629 Z M 4.502051 34.199432 " transform="matrix(1.101928,0,0,1.089407,0,0.145254)"/>
<path style="fill:none;stroke-width:0.55;stroke-linecap:butt;stroke-linejoin:miter;stroke:rgb(20%,20%,20%);stroke-opacity:1;stroke-miterlimit:10;" d="M 4.502051 6.901746 L 31.400919 6.901746 L 31.400919 40.198254 L 4.502051 40.198254 Z M 4.502051 6.901746 " transform="matrix(1.101928,0,0,1.089407,0,0.145254)"/>
<path style="fill:none;stroke-width:0.79;stroke-linecap:butt;stroke-linejoin:miter;stroke:rgb(20%,20%,20%);stroke-opacity:1;stroke-miterlimit:10;" d="M 32.903966 7.70135 L 32.903966 8.300157 " transform="matrix(1.101928,0,0,1.089407,0,0.145254)"/>
<path style="fill:none;stroke-width:0.79;stroke-linecap:butt;stroke-linejoin:miter;stroke:rgb(20%,20%,20%);stroke-opacity:1;stroke-dasharray:1.092,1.092;stroke-miterlimit:10;" d="M 32.903966 9.397371 L 32.903966 28.498221 " transform="matrix(1.101928,0,0,1.089407,0,0.145254)"/>
<path style="fill:none;stroke-width:0.79;stroke-linecap:butt;stroke-linejoin:miter;stroke:rgb(20%,20%,20%);stroke-opacity:1;stroke-miterlimit:10;" d="M 32.903966 29.000215 L 32.903966 29.599021 " transform="matrix(1.101928,0,0,1.089407,0,0.145254)"/>
<path style="fill:none;stroke-width:1.128;stroke-linecap:butt;stroke-linejoin:miter;stroke:rgb(20%,20%,20%);stroke-opacity:1;stroke-miterlimit:10;" d="M 32.903966 30.603008 L 32.903966 33.901822 " transform="matrix(1.101928,0,0,1.089407,0,0.145254)"/>
<path style="fill:none;stroke-width:0.54;stroke-linecap:butt;stroke-linejoin:miter;stroke:rgb(20%,20%,20%);stroke-opacity:1;stroke-miterlimit:10;" d="M 6.600645 3.301736 L 6.600645 6.697363 " transform="matrix(1.101928,0,0,1.089407,0,0.145254)"/>
<path style="fill:none;stroke-width:0.54;stroke-linecap:butt;stroke-linejoin:miter;stroke:rgb(20%,20%,20%);stroke-opacity:1;stroke-miterlimit:10;" d="M 10.095938 3.301736 L 10.095938 6.697363 " transform="matrix(1.101928,0,0,1.089407,0,0.145254)"/>
<path style="fill:none;stroke-width:0.462;stroke-linecap:butt;stroke-linejoin:miter;stroke:rgb(20%,20%,20%);stroke-opacity:1;stroke-miterlimit:10;" d="M 7.398252 6.901746 L 7.398252 9.501355 " transform="matrix(1.101928,0,0,1.089407,0,0.145254)"/>
<path style="fill:none;stroke-width:0.462;stroke-linecap:butt;stroke-linejoin:miter;stroke:rgb(20%,20%,20%);stroke-opacity:1;stroke-miterlimit:10;" d="M 7.398252 12.900568 L 7.398252 15.500177 " transform="matrix(1.101928,0,0,1.089407,0,0.145254)"/>
<path style="fill:none;stroke-width:0.462;stroke-linecap:butt;stroke-linejoin:miter;stroke:rgb(20%,20%,20%);stroke-opacity:1;stroke-miterlimit:10;" d="M 7.398252 19.096601 L 7.398252 21.69621 " transform="matrix(1.101928,0,0,1.089407,0,0.145254)"/>
<path style="fill:none;stroke-width:0.462;stroke-linecap:butt;stroke-linejoin:miter;stroke:rgb(20%,20%,20%);stroke-opacity:1;stroke-miterlimit:10;" d="M 7.398252 25.299806 L 7.398252 27.799016 " transform="matrix(1.101928,0,0,1.089407,0,0.145254)"/>
<path style="fill:none;stroke-width:0.462;stroke-linecap:butt;stroke-linejoin:miter;stroke:rgb(20%,20%,20%);stroke-opacity:1;stroke-miterlimit:10;" d="M 7.398252 31.499425 L 7.398252 34.002221 " transform="matrix(1.101928,0,0,1.089407,0,0.145254)"/>
<path style="fill:none;stroke-width:0.462;stroke-linecap:butt;stroke-linejoin:miter;stroke:rgb(20%,20%,20%);stroke-opacity:1;stroke-miterlimit:10;" d="M 7.398252 37.702629 L 7.398252 40.198254 " transform="matrix(1.101928,0,0,1.089407,0,0.145254)"/>
<path style="fill:none;stroke-width:0.462;stroke-linecap:butt;stroke-linejoin:miter;stroke:rgb(20%,20%,20%);stroke-opacity:1;stroke-miterlimit:10;" d="M 28.703233 6.901746 L 28.703233 9.501355 " transform="matrix(1.101928,0,0,1.089407,0,0.145254)"/>
<path style="fill:none;stroke-width:0.462;stroke-linecap:butt;stroke-linejoin:miter;stroke:rgb(20%,20%,20%);stroke-opacity:1;stroke-miterlimit:10;" d="M 28.703233 12.900568 L 28.703233 15.500177 " transform="matrix(1.101928,0,0,1.089407,0,0.145254)"/>
<path style="fill:none;stroke-width:0.462;stroke-linecap:butt;stroke-linejoin:miter;stroke:rgb(20%,20%,20%);stroke-opacity:1;stroke-miterlimit:10;" d="M 28.703233 19.096601 L 28.703233 21.69621 " transform="matrix(1.101928,0,0,1.089407,0,0.145254)"/>
<path style="fill:none;stroke-width:0.462;stroke-linecap:butt;stroke-linejoin:miter;stroke:rgb(20%,20%,20%);stroke-opacity:1;stroke-miterlimit:10;" d="M 28.703233 25.299806 L 28.703233 27.799016 " transform="matrix(1.101928,0,0,1.089407,0,0.145254)"/>
<path style="fill:none;stroke-width:0.462;stroke-linecap:butt;stroke-linejoin:miter;stroke:rgb(20%,20%,20%);stroke-opacity:1;stroke-miterlimit:10;" d="M 28.703233 31.499425 L 28.703233 34.002221 " transform="matrix(1.101928,0,0,1.089407,0,0.145254)"/>
<path style="fill:none;stroke-width:0.462;stroke-linecap:butt;stroke-linejoin:miter;stroke:rgb(20%,20%,20%);stroke-opacity:1;stroke-miterlimit:10;" d="M 28.703233 37.702629 L 28.703233 40.198254 " transform="matrix(1.101928,0,0,1.089407,0,0.145254)"/>
</g>
</svg>
