<?xml version="1.0" encoding="UTF-8"?>
<svg xmlns="http://www.w3.org/2000/svg" xmlns:xlink="http://www.w3.org/1999/xlink" width="40pt" height="48pt" viewBox="0 0 40 48" version="1.1">
<g id="surface1">
<path style="fill:none;stroke-width:0.5589;stroke-linecap:butt;stroke-linejoin:miter;stroke:rgb(20%,20%,20%);stroke-opacity:1;stroke-miterlimit:10;" d="M 0.201504 0.299051 L 35.899512 0.299051 L 35.899512 43.801767 L 0.201504 43.801767 Z M 0.201504 0.299051 " transform="matrix(1.104972,0,0,1.084882,0,0.132597)"/>
<path style="fill:none;stroke-width:0.5589;stroke-linecap:butt;stroke-linejoin:miter;stroke:rgb(20%,20%,20%);stroke-opacity:1;stroke-miterlimit:10;" d="M 3.998262 6.999808 L 32.201738 6.999808 C 33.198652 6.999808 34.001133 6.20047 34.001133 5.199497 C 34.001133 4.198524 33.198652 3.399186 32.201738 3.399186 L 3.998262 3.399186 C 3.001348 3.399186 2.198867 4.198524 2.198867 5.199497 C 2.198867 6.20047 3.001348 6.999808 3.998262 6.999808 Z M 3.998262 6.999808 " transform="matrix(1.104972,0,0,1.084882,0,0.132597)"/>
<path style="fill:none;stroke-width:0.4986;stroke-linecap:butt;stroke-linejoin:miter;stroke:rgb(20%,20%,20%);stroke-opacity:1;stroke-miterlimit:10;" d="M 6.200664 29.500096 L 29.801367 29.500096 L 29.801367 31.498441 L 6.200664 31.498441 Z M 6.200664 29.500096 " transform="matrix(1.104972,0,0,1.084882,0,0.132597)"/>
<path style="fill:none;stroke-width:0.5079;stroke-linecap:butt;stroke-linejoin:miter;stroke:rgb(20%,20%,20%);stroke-opacity:1;stroke-miterlimit:10;" d="M 6.200664 31.599259 L 17.799512 31.599259 L 17.799512 40.201145 L 6.200664 40.201145 Z M 6.200664 31.599259 " transform="matrix(1.104972,0,0,1.084882,0,0.132597)"/>
<path style="fill:none;stroke-width:0.5156;stroke-linecap:butt;stroke-linejoin:miter;stroke:rgb(20%,20%,20%);stroke-opacity:1;stroke-miterlimit:10;" d="M 17.799512 31.599259 L 29.801367 31.599259 L 29.801367 40.201145 L 17.799512 40.201145 Z M 17.799512 31.599259 " transform="matrix(1.104972,0,0,1.084882,0,0.132597)"/>
<path style="fill:none;stroke-width:0.8172;stroke-linecap:butt;stroke-linejoin:miter;stroke:rgb(20%,20%,20%);stroke-opacity:1;stroke-miterlimit:10;" d="M 33.400156 7.899964 L 33.400156 8.501268 " transform="matrix(1.104972,0,0,1.084882,0,0.132597)"/>
<path style="fill:none;stroke-width:0.8172;stroke-linecap:butt;stroke-linejoin:miter;stroke:rgb(20%,20%,20%);stroke-opacity:1;stroke-dasharray:1.1296,1.1296;stroke-miterlimit:10;" d="M 33.400156 9.700275 L 33.400156 29.399278 " transform="matrix(1.104972,0,0,1.084882,0,0.132597)"/>
<path style="fill:none;stroke-width:0.8172;stroke-linecap:butt;stroke-linejoin:miter;stroke:rgb(20%,20%,20%);stroke-opacity:1;stroke-miterlimit:10;" d="M 33.400156 30.000582 L 33.400156 30.598286 " transform="matrix(1.104972,0,0,1.084882,0,0.132597)"/>
<path style="fill:none;stroke-width:1.1675;stroke-linecap:butt;stroke-linejoin:miter;stroke:rgb(20%,20%,20%);stroke-opacity:1;stroke-miterlimit:10;" d="M 33.400156 31.498441 L 33.400156 34.998246 " transform="matrix(1.104972,0,0,1.084882,0,0.132597)"/>
<path style="fill:none;stroke-width:0.5788;stroke-linecap:butt;stroke-linejoin:miter;stroke:rgb(20%,20%,20%);stroke-opacity:1;stroke-miterlimit:10;" d="M 3.998262 6.999808 L 6.10168 6.999808 L 6.10168 40.201145 L 3.998262 40.201145 Z M 3.998262 6.999808 " transform="matrix(1.104972,0,0,1.084882,0,0.132597)"/>
<path style="fill:none;stroke-width:0.5788;stroke-linecap:butt;stroke-linejoin:miter;stroke:rgb(20%,20%,20%);stroke-opacity:1;stroke-miterlimit:10;" d="M 29.698848 6.999808 L 31.79873 6.999808 L 31.79873 40.201145 L 29.698848 40.201145 Z M 29.698848 6.999808 " transform="matrix(1.104972,0,0,1.084882,0,0.132597)"/>
</g>
</svg>
