<?xml version="1.0" encoding="UTF-8"?>
<svg xmlns="http://www.w3.org/2000/svg" xmlns:xlink="http://www.w3.org/1999/xlink" width="40pt" height="48pt" viewBox="0 0 40 48" version="1.1">
<g id="surface1">
<path style="fill:none;stroke-width:0.5589;stroke-linecap:butt;stroke-linejoin:miter;stroke:rgb(20%,20%,20%);stroke-opacity:1;stroke-miterlimit:10;" d="M 0.201504 0.299051 L 35.899512 0.299051 L 35.899512 43.801767 L 0.201504 43.801767 Z M 0.201504 0.299051 " transform="matrix(1.104972,0,0,1.084882,0,0.132597)"/>
<path style="fill:none;stroke-width:0.5589;stroke-linecap:butt;stroke-linejoin:miter;stroke:rgb(20%,20%,20%);stroke-opacity:1;stroke-miterlimit:10;" d="M 3.298301 7.29866 L 32.901699 7.29866 C 33.499141 7.29866 34.001133 6.801774 34.001133 6.20047 L 34.001133 4.699011 C 34.001133 4.101308 33.499141 3.600821 32.901699 3.600821 L 3.298301 3.600821 C 2.700859 3.600821 2.198867 4.101308 2.198867 4.699011 L 2.198867 6.099653 C 2.198867 6.801774 2.700859 7.29866 3.298301 7.29866 Z M 3.298301 7.29866 " transform="matrix(1.104972,0,0,1.084882,0,0.132597)"/>
<path style="fill:none;stroke-width:0.5062;stroke-linecap:round;stroke-linejoin:round;stroke:rgb(20%,20%,20%);stroke-opacity:1;stroke-miterlimit:10;" d="M 6.10168 3.701638 L 6.10168 7.29866 " transform="matrix(1.104972,0,0,1.084882,0,0.132597)"/>
<path style="fill:none;stroke-width:0.5062;stroke-linecap:round;stroke-linejoin:round;stroke:rgb(20%,20%,20%);stroke-opacity:1;stroke-miterlimit:10;" d="M 30.09832 7.29866 L 30.09832 3.701638 " transform="matrix(1.104972,0,0,1.084882,0,0.132597)"/>
<path style="fill:none;stroke-width:0.5589;stroke-linecap:butt;stroke-linejoin:miter;stroke:rgb(20%,20%,20%);stroke-opacity:1;stroke-miterlimit:10;" d="M 4.599238 9.599457 L 31.498242 9.599457 L 31.498242 13.801383 L 4.599238 13.801383 Z M 4.599238 9.599457 " transform="matrix(1.104972,0,0,1.084882,0,0.132597)"/>
<path style="fill:none;stroke-width:0.5589;stroke-linecap:butt;stroke-linejoin:miter;stroke:rgb(20%,20%,20%);stroke-opacity:1;stroke-miterlimit:10;" d="M 4.599238 13.8986 L 31.498242 13.8986 L 31.498242 18.100526 L 4.599238 18.100526 Z M 4.599238 13.8986 " transform="matrix(1.104972,0,0,1.084882,0,0.132597)"/>
<path style="fill:none;stroke-width:0.5589;stroke-linecap:butt;stroke-linejoin:miter;stroke:rgb(20%,20%,20%);stroke-opacity:1;stroke-miterlimit:10;" d="M 4.599238 18.100526 L 31.498242 18.100526 L 31.498242 22.298852 L 4.599238 22.298852 Z M 4.599238 18.100526 " transform="matrix(1.104972,0,0,1.084882,0,0.132597)"/>
<path style="fill:none;stroke-width:0.5589;stroke-linecap:butt;stroke-linejoin:miter;stroke:rgb(20%,20%,20%);stroke-opacity:1;stroke-miterlimit:10;" d="M 4.599238 22.298852 L 31.498242 22.298852 L 31.498242 26.500778 L 4.599238 26.500778 Z M 4.599238 22.298852 " transform="matrix(1.104972,0,0,1.084882,0,0.132597)"/>
<path style="fill:none;stroke-width:0.5589;stroke-linecap:butt;stroke-linejoin:miter;stroke:rgb(20%,20%,20%);stroke-opacity:1;stroke-miterlimit:10;" d="M 4.599238 26.601595 L 31.498242 26.601595 L 31.498242 30.79992 L 4.599238 30.79992 Z M 4.599238 26.601595 " transform="matrix(1.104972,0,0,1.084882,0,0.132597)"/>
<path style="fill:none;stroke-width:0.5589;stroke-linecap:butt;stroke-linejoin:miter;stroke:rgb(20%,20%,20%);stroke-opacity:1;stroke-miterlimit:10;" d="M 4.599238 30.79992 L 31.498242 30.79992 L 31.498242 34.998246 L 4.599238 34.998246 Z M 4.599238 30.79992 " transform="matrix(1.104972,0,0,1.084882,0,0.132597)"/>
<path style="fill:none;stroke-width:0.5589;stroke-linecap:butt;stroke-linejoin:miter;stroke:rgb(20%,20%,20%);stroke-opacity:1;stroke-miterlimit:10;" d="M 4.599238 35.099063 L 31.498242 35.099063 L 31.498242 39.300989 L 4.599238 39.300989 Z M 4.599238 35.099063 " transform="matrix(1.104972,0,0,1.084882,0,0.132597)"/>
<path style="fill:none;stroke-width:0.5589;stroke-linecap:butt;stroke-linejoin:miter;stroke:rgb(20%,20%,20%);stroke-opacity:1;stroke-miterlimit:10;" d="M 8.399531 7.29866 L 8.399531 11.500586 " transform="matrix(1.104972,0,0,1.084882,0,0.132597)"/>
<path style="fill:none;stroke-width:0.5589;stroke-linecap:butt;stroke-linejoin:miter;stroke:rgb(20%,20%,20%);stroke-opacity:1;stroke-miterlimit:10;" d="M 10.799902 7.29866 L 10.799902 9.599457 " transform="matrix(1.104972,0,0,1.084882,0,0.132597)"/>
<path style="fill:none;stroke-width:0.5589;stroke-linecap:butt;stroke-linejoin:miter;stroke:rgb(20%,20%,20%);stroke-opacity:1;stroke-miterlimit:10;" d="M 25.099609 7.29866 L 25.099609 9.599457 " transform="matrix(1.104972,0,0,1.084882,0,0.132597)"/>
<path style="fill:none;stroke-width:0.5589;stroke-linecap:butt;stroke-linejoin:miter;stroke:rgb(20%,20%,20%);stroke-opacity:1;stroke-miterlimit:10;" d="M 27.701484 7.29866 L 27.701484 11.500586 " transform="matrix(1.104972,0,0,1.084882,0,0.132597)"/>
<path style="fill:none;stroke-width:0.5195;stroke-linecap:butt;stroke-linejoin:miter;stroke:rgb(20%,20%,20%);stroke-opacity:1;stroke-miterlimit:10;" d="M 8.399531 13.8986 L 8.399531 16.001364 " transform="matrix(1.104972,0,0,1.084882,0,0.132597)"/>
<path style="fill:none;stroke-width:0.5195;stroke-linecap:butt;stroke-linejoin:miter;stroke:rgb(20%,20%,20%);stroke-opacity:1;stroke-miterlimit:10;" d="M 27.701484 13.8986 L 27.701484 16.001364 " transform="matrix(1.104972,0,0,1.084882,0,0.132597)"/>
<path style="fill:none;stroke-width:0.5195;stroke-linecap:butt;stroke-linejoin:miter;stroke:rgb(20%,20%,20%);stroke-opacity:1;stroke-miterlimit:10;" d="M 8.399531 18.100526 L 8.399531 20.199689 " transform="matrix(1.104972,0,0,1.084882,0,0.132597)"/>
<path style="fill:none;stroke-width:0.5195;stroke-linecap:butt;stroke-linejoin:miter;stroke:rgb(20%,20%,20%);stroke-opacity:1;stroke-miterlimit:10;" d="M 27.701484 18.100526 L 27.701484 20.199689 " transform="matrix(1.104972,0,0,1.084882,0,0.132597)"/>
<path style="fill:none;stroke-width:0.5195;stroke-linecap:butt;stroke-linejoin:miter;stroke:rgb(20%,20%,20%);stroke-opacity:1;stroke-miterlimit:10;" d="M 8.399531 22.298852 L 8.399531 24.498832 " transform="matrix(1.104972,0,0,1.084882,0,0.132597)"/>
<path style="fill:none;stroke-width:0.5195;stroke-linecap:butt;stroke-linejoin:miter;stroke:rgb(20%,20%,20%);stroke-opacity:1;stroke-miterlimit:10;" d="M 27.701484 22.298852 L 27.701484 24.498832 " transform="matrix(1.104972,0,0,1.084882,0,0.132597)"/>
<path style="fill:none;stroke-width:0.5195;stroke-linecap:butt;stroke-linejoin:miter;stroke:rgb(20%,20%,20%);stroke-opacity:1;stroke-miterlimit:10;" d="M 8.399531 26.601595 L 8.399531 28.700758 " transform="matrix(1.104972,0,0,1.084882,0,0.132597)"/>
<path style="fill:none;stroke-width:0.5195;stroke-linecap:butt;stroke-linejoin:miter;stroke:rgb(20%,20%,20%);stroke-opacity:1;stroke-miterlimit:10;" d="M 27.701484 26.601595 L 27.701484 28.700758 " transform="matrix(1.104972,0,0,1.084882,0,0.132597)"/>
<path style="fill:none;stroke-width:0.5195;stroke-linecap:butt;stroke-linejoin:miter;stroke:rgb(20%,20%,20%);stroke-opacity:1;stroke-miterlimit:10;" d="M 8.399531 30.79992 L 8.399531 32.899083 " transform="matrix(1.104972,0,0,1.084882,0,0.132597)"/>
<path style="fill:none;stroke-width:0.5195;stroke-linecap:butt;stroke-linejoin:miter;stroke:rgb(20%,20%,20%);stroke-opacity:1;stroke-miterlimit:10;" d="M 27.701484 30.79992 L 27.701484 32.899083 " transform="matrix(1.104972,0,0,1.084882,0,0.132597)"/>
<path style="fill:none;stroke-width:0.5195;stroke-linecap:butt;stroke-linejoin:miter;stroke:rgb(20%,20%,20%);stroke-opacity:1;stroke-miterlimit:10;" d="M 8.399531 35.099063 L 8.399531 37.198226 " transform="matrix(1.104972,0,0,1.084882,0,0.132597)"/>
<path style="fill:none;stroke-width:0.5195;stroke-linecap:butt;stroke-linejoin:miter;stroke:rgb(20%,20%,20%);stroke-opacity:1;stroke-miterlimit:10;" d="M 27.701484 35.099063 L 27.701484 37.198226 " transform="matrix(1.104972,0,0,1.084882,0,0.132597)"/>
</g>
</svg>
