<?xml version="1.0" encoding="UTF-8"?>
<svg xmlns="http://www.w3.org/2000/svg" xmlns:xlink="http://www.w3.org/1999/xlink" width="40pt" height="48pt" viewBox="0 0 40 48" version="1.1">
<g id="surface1">
<path style=" stroke:none;fill-rule:nonzero;fill:rgb(68.627451%,68.627451%,68.627451%);fill-opacity:1;" d="M 6.847656 7.78125 L 32.929688 7.78125 L 32.929688 32.355469 L 6.847656 32.355469 Z M 6.847656 7.78125 "/>
<path style="fill:none;stroke-width:0.579;stroke-linecap:butt;stroke-linejoin:miter;stroke:rgb(20%,20%,20%);stroke-opacity:1;stroke-miterlimit:10;" d="M 0.300488 0.299721 L 35.998519 0.299721 L 35.998519 43.799177 L 0.300488 43.799177 Z M 0.300488 0.299721 " transform="matrix(1.104972,0,0,1.092417,0,0.133517)"/>
<path style="fill:none;stroke-width:0.579;stroke-linecap:butt;stroke-linejoin:miter;stroke:rgb(20%,20%,20%);stroke-opacity:1;stroke-miterlimit:10;" d="M 4.001799 7.000747 L 32.198224 7.000747 C 33.202209 7.000747 34.001155 6.19977 34.001155 5.19855 C 34.001155 4.197329 33.202209 3.399929 32.198224 3.399929 L 4.001799 3.399929 C 2.997814 3.399929 2.198869 4.197329 2.198869 5.19855 C 2.198869 6.19977 3.100334 7.000747 4.001799 7.000747 Z M 4.001799 7.000747 " transform="matrix(1.104972,0,0,1.092417,0,0.133517)"/>
<path style="fill:none;stroke-width:0.579;stroke-linecap:butt;stroke-linejoin:miter;stroke:rgb(20%,20%,20%);stroke-opacity:1;stroke-miterlimit:10;" d="M 6.197133 31.602166 L 17.799523 31.602166 L 17.799523 40.201935 L 6.197133 40.201935 Z M 6.197133 31.602166 " transform="matrix(1.104972,0,0,1.092417,0,0.133517)"/>
<path style="fill:none;stroke-width:0.579;stroke-linecap:butt;stroke-linejoin:miter;stroke:rgb(20%,20%,20%);stroke-opacity:1;stroke-miterlimit:10;" d="M 17.799523 31.602166 L 29.801386 31.602166 L 29.801386 40.201935 L 17.799523 40.201935 Z M 17.799523 31.602166 " transform="matrix(1.104972,0,0,1.092417,0,0.133517)"/>
<path style="fill:none;stroke-width:0.579;stroke-linecap:butt;stroke-linejoin:miter;stroke:rgb(20%,20%,20%);stroke-opacity:1;stroke-miterlimit:10;" d="M 33.502697 8.001967 L 33.502697 9.299978 " transform="matrix(1.104972,0,0,1.092417,0,0.133517)"/>
<path style="fill:none;stroke-width:0.579;stroke-linecap:butt;stroke-linejoin:miter;stroke:rgb(20%,20%,20%);stroke-opacity:1;stroke-dasharray:2.86,2.86;stroke-miterlimit:10;" d="M 33.502697 12.09982 L 33.502697 27.797528 " transform="matrix(1.104972,0,0,1.092417,0,0.133517)"/>
<path style="fill:none;stroke-width:0.579;stroke-linecap:butt;stroke-linejoin:miter;stroke:rgb(20%,20%,20%);stroke-opacity:1;stroke-miterlimit:10;" d="M 33.502697 29.299358 L 33.502697 30.600945 " transform="matrix(1.104972,0,0,1.092417,0,0.133517)"/>
<path style="fill:none;stroke-width:1.31;stroke-linecap:butt;stroke-linejoin:miter;stroke:rgb(20%,20%,20%);stroke-opacity:1;stroke-miterlimit:10;" d="M 33.502697 31.602166 L 33.502697 34.999164 " transform="matrix(1.104972,0,0,1.092417,0,0.133517)"/>
<path style="fill:none;stroke-width:0.579;stroke-linecap:butt;stroke-linejoin:miter;stroke:rgb(20%,20%,20%);stroke-opacity:1;stroke-miterlimit:10;" d="M 4.001799 7.000747 L 6.098148 7.000747 L 6.098148 40.201935 L 4.001799 40.201935 Z M 4.001799 7.000747 " transform="matrix(1.104972,0,0,1.092417,0,0.133517)"/>
<path style="fill:none;stroke-width:0.579;stroke-linecap:butt;stroke-linejoin:miter;stroke:rgb(20%,20%,20%);stroke-opacity:1;stroke-miterlimit:10;" d="M 29.801386 7.000747 L 31.897735 7.000747 L 31.897735 40.201935 L 29.801386 40.201935 Z M 29.801386 7.000747 " transform="matrix(1.104972,0,0,1.092417,0,0.133517)"/>
<path style="fill:none;stroke-width:0.579;stroke-linecap:butt;stroke-linejoin:miter;stroke:rgb(20%,20%,20%);stroke-opacity:1;stroke-miterlimit:10;" d="M 6.197133 29.599725 L 29.801386 29.599725 L 29.801386 31.602166 L 6.197133 31.602166 Z M 6.197133 29.599725 " transform="matrix(1.104972,0,0,1.092417,0,0.133517)"/>
</g>
</svg>
