<?xml version="1.0" encoding="UTF-8"?>
<svg xmlns="http://www.w3.org/2000/svg" xmlns:xlink="http://www.w3.org/1999/xlink" width="35pt" height="39pt" viewBox="0 0 35 39" version="1.1">
<g id="surface1">
<path style="fill:none;stroke-width:0.4802;stroke-linecap:round;stroke-linejoin:round;stroke:rgb(20%,20%,20%);stroke-opacity:1;stroke-miterlimit:10;" d="M 36.500089 2.800681 L 3.301478 2.800681 " transform="matrix(0.87306,0,0,0.864745,0.0824557,0)"/>
<path style="fill:none;stroke-width:0.4802;stroke-linecap:round;stroke-linejoin:round;stroke:rgb(20%,20%,20%);stroke-opacity:1;stroke-miterlimit:10;" d="M 3.198571 1.102204 L 36.701429 1.102204 " transform="matrix(0.87306,0,0,0.864745,0.0824557,0)"/>
<path style="fill:none;stroke-width:0.4802;stroke-linecap:round;stroke-linejoin:round;stroke:rgb(20%,20%,20%);stroke-opacity:1;stroke-miterlimit:10;" d="M 3.60125 2.001132 C 3.60125 2.773578 2.974861 3.401472 2.200823 3.401472 C 1.426786 3.401472 0.800397 2.773578 0.800397 2.001132 C 0.800397 1.228686 1.426786 0.600791 2.200823 0.600791 C 2.974861 0.600791 3.60125 1.228686 3.60125 2.001132 Z M 3.60125 2.001132 " transform="matrix(0.87306,0,0,0.864745,0.0824557,0)"/>
<path style="fill:none;stroke-width:0.4802;stroke-linecap:round;stroke-linejoin:round;stroke:rgb(20%,20%,20%);stroke-opacity:1;stroke-miterlimit:10;" d="M 39.099603 2.001132 C 39.099603 2.773578 38.473214 3.401472 37.699177 3.401472 C 36.925139 3.401472 36.29875 2.773578 36.29875 2.001132 C 36.29875 1.228686 36.925139 0.600791 37.699177 0.600791 C 38.473214 0.600791 39.099603 1.228686 39.099603 2.001132 Z M 39.099603 2.001132 " transform="matrix(0.87306,0,0,0.864745,0.0824557,0)"/>
<path style="fill:none;stroke-width:0.4802;stroke-linecap:round;stroke-linejoin:round;stroke:rgb(20%,20%,20%);stroke-opacity:1;stroke-miterlimit:10;" d="M 33.600804 31.498628 C 34.500119 36.801853 32.200377 40.501462 30.598611 44.598588 C 30.598611 44.598588 31.301062 43.898417 32.500149 44.598588 C 32.500149 44.598588 35.099663 37.998918 34.401687 31.399249 " transform="matrix(0.87306,0,0,0.864745,0.0824557,0)"/>
<path style="fill:none;stroke-width:0.4802;stroke-linecap:round;stroke-linejoin:round;stroke:rgb(20%,20%,20%);stroke-opacity:1;stroke-miterlimit:10;" d="M 36.401657 27.302123 L 36.401657 2.90006 L 22.800069 2.90006 C 22.800069 2.90006 20.298988 15.001713 31.699266 27.997776 C 31.699266 27.997776 32.200377 28.499189 32.598581 29.298738 " transform="matrix(0.87306,0,0,0.864745,0.0824557,0)"/>
<path style="fill:none;stroke-width:0.4802;stroke-linecap:round;stroke-linejoin:round;stroke:rgb(20%,20%,20%);stroke-opacity:1;stroke-miterlimit:10;" d="M 36.500089 29.80015 L 36.500089 44.499209 C 36.500089 44.499209 35.900546 44.101693 35.198095 44.499209 " transform="matrix(0.87306,0,0,0.864745,0.0824557,0)"/>
<path style="fill:none;stroke-width:0.4802;stroke-linecap:round;stroke-linejoin:round;stroke:rgb(20%,20%,20%);stroke-opacity:1;stroke-miterlimit:10;" d="M 26.701577 5.80012 C 26.701577 5.80012 26.200466 16.00002 31.802173 24.198788 C 32.799921 25.698508 33.497897 27.302123 33.900575 28.901222 " transform="matrix(0.87306,0,0,0.864745,0.0824557,0)"/>
<path style="fill:none;stroke-width:0.4802;stroke-linecap:round;stroke-linejoin:round;stroke:rgb(20%,20%,20%);stroke-opacity:1;stroke-miterlimit:10;" d="M 35.099663 30.897837 C 35.301002 37.09999 33.802143 44.598588 33.802143 44.598588 C 33.802143 44.598588 33.198125 44.101693 32.401716 44.598588 " transform="matrix(0.87306,0,0,0.864745,0.0824557,0)"/>
<path style="fill:none;stroke-width:0.4802;stroke-linecap:round;stroke-linejoin:round;stroke:rgb(20%,20%,20%);stroke-opacity:1;stroke-miterlimit:10;" d="M 30.298839 5.80012 C 30.298839 5.80012 29.802202 13.700751 34.200347 24.898958 C 34.598552 25.901783 34.898323 26.999469 35.00123 28.39981 " transform="matrix(0.87306,0,0,0.864745,0.0824557,0)"/>
<path style="fill:none;stroke-width:0.4802;stroke-linecap:round;stroke-linejoin:round;stroke:rgb(20%,20%,20%);stroke-opacity:1;stroke-miterlimit:10;" d="M 35.699206 30.400942 C 35.900546 38.699089 35.099663 44.499209 35.099663 44.499209 C 35.099663 44.499209 34.598552 44.101693 33.802143 44.499209 " transform="matrix(0.87306,0,0,0.864745,0.0824557,0)"/>
<path style="fill:none;stroke-width:0.4802;stroke-linecap:round;stroke-linejoin:round;stroke:rgb(20%,20%,20%);stroke-opacity:1;stroke-miterlimit:10;" d="M 33.802143 5.80012 C 33.802143 5.80012 33.301032 10.299279 34.500119 17.797877 C 35.198095 21.899519 35.497867 24.600821 35.600774 27.997776 " transform="matrix(0.87306,0,0,0.864745,0.0824557,0)"/>
<path style="fill:none;stroke-width:0.4802;stroke-linecap:round;stroke-linejoin:round;stroke:rgb(20%,20%,20%);stroke-opacity:1;stroke-miterlimit:10;" d="M 37.300972 26.701332 C 37.300972 26.701332 34.799891 29.199359 32.701488 29.199359 C 32.701488 29.199359 32.101944 29.09998 32.200377 28.697947 C 32.200377 28.697947 31.999038 30.202183 33.699236 31.498628 C 33.699236 31.498628 37.0012 30.400942 37.802083 27.799018 Z M 37.300972 26.701332 " transform="matrix(0.87306,0,0,0.864745,0.0824557,0)"/>
<path style="fill:none;stroke-width:0.4802;stroke-linecap:round;stroke-linejoin:round;stroke:rgb(20%,20%,20%);stroke-opacity:1;stroke-miterlimit:10;" d="M 6.299196 31.498628 C 5.399881 36.801853 7.699623 40.501462 9.301389 44.598588 C 9.301389 44.598588 8.598938 43.898417 7.399851 44.598588 C 7.399851 44.598588 4.800337 37.998918 5.498313 31.399249 " transform="matrix(0.87306,0,0,0.864745,0.0824557,0)"/>
<path style="fill:none;stroke-width:0.4802;stroke-linecap:round;stroke-linejoin:round;stroke:rgb(20%,20%,20%);stroke-opacity:1;stroke-miterlimit:10;" d="M 3.399911 27.302123 L 3.399911 2.90006 L 17.001498 2.90006 C 17.001498 2.90006 19.498105 15.001713 8.097827 27.997776 C 8.097827 27.997776 7.60119 28.499189 7.198512 29.298738 " transform="matrix(0.87306,0,0,0.864745,0.0824557,0)"/>
<path style="fill:none;stroke-width:0.4802;stroke-linecap:round;stroke-linejoin:round;stroke:rgb(20%,20%,20%);stroke-opacity:1;stroke-miterlimit:10;" d="M 3.399911 29.80015 L 3.399911 44.499209 C 3.399911 44.499209 3.999454 44.101693 4.701905 44.499209 " transform="matrix(0.87306,0,0,0.864745,0.0824557,0)"/>
<path style="fill:none;stroke-width:0.4802;stroke-linecap:round;stroke-linejoin:round;stroke:rgb(20%,20%,20%);stroke-opacity:1;stroke-miterlimit:10;" d="M 13.198423 5.80012 C 13.198423 5.80012 13.699534 16.00002 8.097827 24.198788 C 7.100079 25.698508 6.402103 27.302123 5.999425 28.901222 " transform="matrix(0.87306,0,0,0.864745,0.0824557,0)"/>
<path style="fill:none;stroke-width:0.4802;stroke-linecap:round;stroke-linejoin:round;stroke:rgb(20%,20%,20%);stroke-opacity:1;stroke-miterlimit:10;" d="M 4.701905 30.897837 C 4.500565 37.09999 5.999425 44.598588 5.999425 44.598588 C 5.999425 44.598588 6.598968 44.101693 7.399851 44.598588 " transform="matrix(0.87306,0,0,0.864745,0.0824557,0)"/>
<path style="fill:none;stroke-width:0.4802;stroke-linecap:round;stroke-linejoin:round;stroke:rgb(20%,20%,20%);stroke-opacity:1;stroke-miterlimit:10;" d="M 9.601161 5.80012 C 9.601161 5.80012 10.097798 13.700751 5.699653 24.898958 C 5.301448 25.901783 5.001677 26.999469 4.89877 28.39981 " transform="matrix(0.87306,0,0,0.864745,0.0824557,0)"/>
<path style="fill:none;stroke-width:0.4802;stroke-linecap:round;stroke-linejoin:round;stroke:rgb(20%,20%,20%);stroke-opacity:1;stroke-miterlimit:10;" d="M 4.097887 30.400942 C 3.901022 38.699089 4.701905 44.499209 4.701905 44.499209 C 4.701905 44.499209 5.198542 44.101693 5.999425 44.499209 " transform="matrix(0.87306,0,0,0.864745,0.0824557,0)"/>
<path style="fill:none;stroke-width:0.4802;stroke-linecap:round;stroke-linejoin:round;stroke:rgb(20%,20%,20%);stroke-opacity:1;stroke-miterlimit:10;" d="M 6.097857 5.80012 C 6.097857 5.80012 6.598968 10.299279 5.399881 17.797877 C 4.701905 21.899519 4.402133 24.600821 4.299226 27.997776 " transform="matrix(0.87306,0,0,0.864745,0.0824557,0)"/>
<path style="fill:none;stroke-width:0.4802;stroke-linecap:round;stroke-linejoin:round;stroke:rgb(20%,20%,20%);stroke-opacity:1;stroke-miterlimit:10;" d="M 2.599028 26.701332 C 2.599028 26.701332 5.100109 29.199359 7.198512 29.199359 C 7.198512 29.199359 7.798056 29.09998 7.699623 28.697947 C 7.699623 28.697947 7.900962 30.202183 6.200764 31.498628 C 6.200764 31.498628 2.8988 30.400942 2.097917 27.799018 Z M 2.599028 26.701332 " transform="matrix(0.87306,0,0,0.864745,0.0824557,0)"/>
</g>
</svg>
