<?xml version="1.0" encoding="UTF-8"?>
<svg xmlns="http://www.w3.org/2000/svg" xmlns:xlink="http://www.w3.org/1999/xlink" width="21pt" height="23pt" viewBox="0 0 21 23" version="1.1">
<g id="surface1">
<path style="fill:none;stroke-width:0.4802;stroke-linecap:round;stroke-linejoin:round;stroke:rgb(20%,20%,20%);stroke-opacity:1;stroke-miterlimit:10;" d="M 36.497106 2.803431 L 3.298495 2.803431 " transform="matrix(0.523836,0,0,0.509978,0.0494734,0)"/>
<path style="fill:none;stroke-width:0.4802;stroke-linecap:round;stroke-linejoin:round;stroke:rgb(20%,20%,20%);stroke-opacity:1;stroke-miterlimit:10;" d="M 3.201554 1.102989 L 36.698446 1.102989 " transform="matrix(0.523836,0,0,0.509978,0.0494734,0)"/>
<path style="fill:none;stroke-width:0.4802;stroke-linecap:round;stroke-linejoin:round;stroke:rgb(20%,20%,20%);stroke-opacity:1;stroke-miterlimit:10;" d="M 3.596776 1.999168 C 3.596776 2.772792 2.970387 3.400883 2.202315 3.400883 C 1.426786 3.400883 0.800397 2.772792 0.800397 1.999168 C 0.800397 1.225543 1.426786 0.597452 2.202315 0.597452 C 2.970387 0.597452 3.596776 1.225543 3.596776 1.999168 Z M 3.596776 1.999168 " transform="matrix(0.523836,0,0,0.509978,0.0494734,0)"/>
<path style="fill:none;stroke-width:0.4802;stroke-linecap:round;stroke-linejoin:round;stroke:rgb(20%,20%,20%);stroke-opacity:1;stroke-miterlimit:10;" d="M 39.099603 1.999168 C 39.099603 2.772792 38.473214 3.400883 37.697685 3.400883 C 36.929613 3.400883 36.303224 2.772792 36.303224 1.999168 C 36.303224 1.225543 36.929613 0.597452 37.697685 0.597452 C 38.473214 0.597452 39.099603 1.225543 39.099603 1.999168 Z M 39.099603 1.999168 " transform="matrix(0.523836,0,0,0.509978,0.0494734,0)"/>
<path style="fill:none;stroke-width:0.4802;stroke-linecap:round;stroke-linejoin:round;stroke:rgb(20%,20%,20%);stroke-opacity:1;stroke-miterlimit:10;" d="M 33.596329 31.496467 C 34.498628 36.796943 32.201868 40.496552 30.598611 44.602123 C 30.598611 44.602123 31.29957 43.897435 32.500149 44.602123 C 32.500149 44.602123 35.102646 37.999507 34.401687 31.396892 " transform="matrix(0.523836,0,0,0.509978,0.0494734,0)"/>
<path style="fill:none;stroke-width:0.4802;stroke-linecap:round;stroke-linejoin:round;stroke:rgb(20%,20%,20%);stroke-opacity:1;stroke-miterlimit:10;" d="M 36.400165 27.298981 L 36.400165 2.903006 L 22.798578 2.903006 C 22.798578 2.903006 20.300479 14.997588 31.702249 28.003668 C 31.702249 28.003668 32.201868 28.501546 32.59709 29.298149 " transform="matrix(0.523836,0,0,0.509978,0.0494734,0)"/>
<path style="fill:none;stroke-width:0.4802;stroke-linecap:round;stroke-linejoin:round;stroke:rgb(20%,20%,20%);stroke-opacity:1;stroke-miterlimit:10;" d="M 36.497106 29.803685 L 36.497106 44.502548 C 36.497106 44.502548 35.900546 44.096586 35.199587 44.502548 " transform="matrix(0.523836,0,0,0.509978,0.0494734,0)"/>
<path style="fill:none;stroke-width:0.4802;stroke-linecap:round;stroke-linejoin:round;stroke:rgb(20%,20%,20%);stroke-opacity:1;stroke-miterlimit:10;" d="M 26.698595 5.798353 C 26.698595 5.798353 26.198975 16.001002 31.79919 24.196824 C 32.798429 25.698115 33.499388 27.298981 33.902067 28.899847 " transform="matrix(0.523836,0,0,0.509978,0.0494734,0)"/>
<path style="fill:none;stroke-width:0.4802;stroke-linecap:round;stroke-linejoin:round;stroke:rgb(20%,20%,20%);stroke-opacity:1;stroke-miterlimit:10;" d="M 35.102646 30.899015 C 35.296528 37.103329 33.797669 44.602123 33.797669 44.602123 C 33.797669 44.602123 33.201108 44.096586 32.403208 44.602123 " transform="matrix(0.523836,0,0,0.509978,0.0494734,0)"/>
<path style="fill:none;stroke-width:0.4802;stroke-linecap:round;stroke-linejoin:round;stroke:rgb(20%,20%,20%);stroke-opacity:1;stroke-miterlimit:10;" d="M 30.300331 5.798353 C 30.300331 5.798353 29.800711 13.703108 34.200347 24.901512 C 34.603026 25.897266 34.901306 27.000255 34.998247 28.40197 " transform="matrix(0.523836,0,0,0.509978,0.0494734,0)"/>
<path style="fill:none;stroke-width:0.4802;stroke-linecap:round;stroke-linejoin:round;stroke:rgb(20%,20%,20%);stroke-opacity:1;stroke-miterlimit:10;" d="M 35.699206 30.401138 C 35.900546 38.696535 35.102646 44.502548 35.102646 44.502548 C 35.102646 44.502548 34.603026 44.096586 33.797669 44.502548 " transform="matrix(0.523836,0,0,0.509978,0.0494734,0)"/>
<path style="fill:none;stroke-width:0.4802;stroke-linecap:round;stroke-linejoin:round;stroke:rgb(20%,20%,20%);stroke-opacity:1;stroke-miterlimit:10;" d="M 33.797669 5.798353 C 33.797669 5.798353 33.298049 10.302225 34.498628 17.801019 C 35.199587 21.89893 35.497867 24.602785 35.602265 28.003668 " transform="matrix(0.523836,0,0,0.509978,0.0494734,0)"/>
<path style="fill:none;stroke-width:0.4802;stroke-linecap:round;stroke-linejoin:round;stroke:rgb(20%,20%,20%);stroke-opacity:1;stroke-miterlimit:10;" d="M 37.302464 26.701529 C 37.302464 26.701529 34.796908 29.198573 32.701488 29.198573 C 32.701488 29.198573 32.09747 29.098998 32.201868 28.700696 C 32.201868 28.700696 32.000529 30.201987 33.700728 31.496467 C 33.700728 31.496467 36.996726 30.401138 37.802083 27.796858 Z M 37.302464 26.701529 " transform="matrix(0.523836,0,0,0.509978,0.0494734,0)"/>
<path style="fill:none;stroke-width:0.4802;stroke-linecap:round;stroke-linejoin:round;stroke:rgb(20%,20%,20%);stroke-opacity:1;stroke-miterlimit:10;" d="M 6.303671 31.496467 C 5.401372 36.796943 7.698132 40.496552 9.301389 44.602123 C 9.301389 44.602123 8.60043 43.897435 7.399851 44.602123 C 7.399851 44.602123 4.797354 37.999507 5.498313 31.396892 " transform="matrix(0.523836,0,0,0.509978,0.0494734,0)"/>
<path style="fill:none;stroke-width:0.4802;stroke-linecap:round;stroke-linejoin:round;stroke:rgb(20%,20%,20%);stroke-opacity:1;stroke-miterlimit:10;" d="M 3.402894 27.298981 L 3.402894 2.903006 L 16.997024 2.903006 C 16.997024 2.903006 19.502579 14.997588 8.10081 28.003668 C 8.10081 28.003668 7.60119 28.501546 7.198512 29.298149 " transform="matrix(0.523836,0,0,0.509978,0.0494734,0)"/>
<path style="fill:none;stroke-width:0.4802;stroke-linecap:round;stroke-linejoin:round;stroke:rgb(20%,20%,20%);stroke-opacity:1;stroke-miterlimit:10;" d="M 3.402894 29.803685 L 3.402894 44.502548 C 3.402894 44.502548 3.999454 44.096586 4.700413 44.502548 " transform="matrix(0.523836,0,0,0.509978,0.0494734,0)"/>
<path style="fill:none;stroke-width:0.4802;stroke-linecap:round;stroke-linejoin:round;stroke:rgb(20%,20%,20%);stroke-opacity:1;stroke-miterlimit:10;" d="M 13.201405 5.798353 C 13.201405 5.798353 13.701025 16.001002 8.10081 24.196824 C 7.101571 25.698115 6.400612 27.298981 5.997933 28.899847 " transform="matrix(0.523836,0,0,0.509978,0.0494734,0)"/>
<path style="fill:none;stroke-width:0.4802;stroke-linecap:round;stroke-linejoin:round;stroke:rgb(20%,20%,20%);stroke-opacity:1;stroke-miterlimit:10;" d="M 4.700413 30.899015 C 4.499074 37.103329 5.997933 44.602123 5.997933 44.602123 C 5.997933 44.602123 6.601951 44.096586 7.399851 44.602123 " transform="matrix(0.523836,0,0,0.509978,0.0494734,0)"/>
<path style="fill:none;stroke-width:0.4802;stroke-linecap:round;stroke-linejoin:round;stroke:rgb(20%,20%,20%);stroke-opacity:1;stroke-miterlimit:10;" d="M 9.599669 5.798353 C 9.599669 5.798353 10.099289 13.703108 5.699653 24.901512 C 5.296974 25.897266 4.998694 27.000255 4.901753 28.40197 " transform="matrix(0.523836,0,0,0.509978,0.0494734,0)"/>
<path style="fill:none;stroke-width:0.4802;stroke-linecap:round;stroke-linejoin:round;stroke:rgb(20%,20%,20%);stroke-opacity:1;stroke-miterlimit:10;" d="M 4.096396 30.401138 C 3.902513 38.696535 4.700413 44.502548 4.700413 44.502548 C 4.700413 44.502548 5.200033 44.096586 5.997933 44.502548 " transform="matrix(0.523836,0,0,0.509978,0.0494734,0)"/>
<path style="fill:none;stroke-width:0.4802;stroke-linecap:round;stroke-linejoin:round;stroke:rgb(20%,20%,20%);stroke-opacity:1;stroke-miterlimit:10;" d="M 6.102331 5.798353 C 6.102331 5.798353 6.601951 10.302225 5.401372 17.801019 C 4.700413 21.89893 4.402133 24.602785 4.297735 28.003668 " transform="matrix(0.523836,0,0,0.509978,0.0494734,0)"/>
<path style="fill:none;stroke-width:0.4802;stroke-linecap:round;stroke-linejoin:round;stroke:rgb(20%,20%,20%);stroke-opacity:1;stroke-miterlimit:10;" d="M 2.597536 26.701529 C 2.597536 26.701529 5.103092 29.198573 7.198512 29.198573 C 7.198512 29.198573 7.80253 29.098998 7.698132 28.700696 C 7.698132 28.700696 7.899471 30.201987 6.199272 31.496467 C 6.199272 31.496467 2.903274 30.401138 2.097917 27.796858 Z M 2.597536 26.701529 " transform="matrix(0.523836,0,0,0.509978,0.0494734,0)"/>
</g>
</svg>
