<?xml version="1.0" encoding="UTF-8"?>
<svg xmlns="http://www.w3.org/2000/svg" xmlns:xlink="http://www.w3.org/1999/xlink" width="40pt" height="48pt" viewBox="0 0 40 48" version="1.1">
<g id="surface1">
<path style=" stroke:none;fill-rule:nonzero;fill:rgb(87.058824%,87.058824%,87.058824%);fill-opacity:1;" d="M 6.851562 7.726562 L 32.929688 7.726562 L 32.929688 32.136719 L 6.851562 32.136719 Z M 6.851562 7.726562 "/>
<path style="fill:none;stroke-width:0.5788;stroke-linecap:butt;stroke-linejoin:miter;stroke:rgb(20%,20%,20%);stroke-opacity:1;stroke-miterlimit:10;" d="M 0.201504 0.198233 L 35.899512 0.198233 L 35.899512 43.700949 L 0.201504 43.700949 Z M 0.201504 0.198233 " transform="matrix(1.104972,0,0,1.084882,0,0.132597)"/>
<path style="fill:none;stroke-width:0.5788;stroke-linecap:butt;stroke-linejoin:miter;stroke:rgb(20%,20%,20%);stroke-opacity:1;stroke-miterlimit:10;" d="M 3.998262 6.999808 L 32.201738 6.999808 C 33.198652 6.999808 34.001133 6.20047 34.001133 5.199497 C 34.001133 4.198524 33.198652 3.399186 32.201738 3.399186 L 3.998262 3.399186 C 3.001348 3.399186 2.198867 4.198524 2.198867 5.199497 C 2.198867 6.20047 3.001348 6.999808 3.998262 6.999808 Z M 3.998262 6.999808 " transform="matrix(1.104972,0,0,1.084882,0,0.132597)"/>
<path style="fill:none;stroke-width:0.5788;stroke-linecap:butt;stroke-linejoin:miter;stroke:rgb(20%,20%,20%);stroke-opacity:1;stroke-miterlimit:10;" d="M 6.200664 31.599259 L 17.799512 31.599259 L 17.799512 40.201145 L 6.200664 40.201145 Z M 6.200664 31.599259 " transform="matrix(1.104972,0,0,1.084882,0,0.132597)"/>
<path style="fill:none;stroke-width:0.5788;stroke-linecap:butt;stroke-linejoin:miter;stroke:rgb(20%,20%,20%);stroke-opacity:1;stroke-miterlimit:10;" d="M 17.799512 31.599259 L 29.801367 31.599259 L 29.801367 40.201145 L 17.799512 40.201145 Z M 17.799512 31.599259 " transform="matrix(1.104972,0,0,1.084882,0,0.132597)"/>
<path style="fill:none;stroke-width:0.5789;stroke-linecap:butt;stroke-linejoin:miter;stroke:rgb(20%,20%,20%);stroke-opacity:1;stroke-miterlimit:10;" d="M 33.499141 7.899964 L 33.499141 9.199788 " transform="matrix(1.104972,0,0,1.084882,0,0.132597)"/>
<path style="fill:none;stroke-width:0.5789;stroke-linecap:butt;stroke-linejoin:miter;stroke:rgb(20%,20%,20%);stroke-opacity:1;stroke-dasharray:2.8595,2.8595;stroke-miterlimit:10;" d="M 33.499141 12.098289 L 33.499141 27.800602 " transform="matrix(1.104972,0,0,1.084882,0,0.132597)"/>
<path style="fill:none;stroke-width:0.5789;stroke-linecap:butt;stroke-linejoin:miter;stroke:rgb(20%,20%,20%);stroke-opacity:1;stroke-miterlimit:10;" d="M 33.499141 29.298461 L 33.499141 30.598286 " transform="matrix(1.104972,0,0,1.084882,0,0.132597)"/>
<path style="fill:none;stroke-width:1.3098;stroke-linecap:butt;stroke-linejoin:miter;stroke:rgb(20%,20%,20%);stroke-opacity:1;stroke-miterlimit:10;" d="M 33.499141 31.498441 L 33.499141 34.998246 " transform="matrix(1.104972,0,0,1.084882,0,0.132597)"/>
<path style="fill:none;stroke-width:0.5788;stroke-linecap:butt;stroke-linejoin:miter;stroke:rgb(20%,20%,20%);stroke-opacity:1;stroke-miterlimit:10;" d="M 3.998262 6.999808 L 6.10168 6.999808 L 6.10168 40.201145 L 3.998262 40.201145 Z M 3.998262 6.999808 " transform="matrix(1.104972,0,0,1.084882,0,0.132597)"/>
<path style="fill:none;stroke-width:0.5788;stroke-linecap:butt;stroke-linejoin:miter;stroke:rgb(20%,20%,20%);stroke-opacity:1;stroke-miterlimit:10;" d="M 29.698848 6.999808 L 31.79873 6.999808 L 31.79873 40.201145 L 29.698848 40.201145 Z M 29.698848 6.999808 " transform="matrix(1.104972,0,0,1.084882,0,0.132597)"/>
<path style="fill:none;stroke-width:0.5788;stroke-linecap:butt;stroke-linejoin:miter;stroke:rgb(20%,20%,20%);stroke-opacity:1;stroke-miterlimit:10;" d="M 6.200664 29.500096 L 29.801367 29.500096 L 29.801367 31.498441 L 6.200664 31.498441 Z M 6.200664 29.500096 " transform="matrix(1.104972,0,0,1.084882,0,0.132597)"/>
<path style="fill:none;stroke-width:0.2074;stroke-linecap:butt;stroke-linejoin:miter;stroke:rgb(20%,20%,20%);stroke-opacity:1;stroke-miterlimit:10;" d="M 5.99916 8.198815 C 9.000508 8.198815 11.400879 10.60043 11.400879 13.599749 C 11.400879 16.599067 9.000508 19.101499 5.99916 19.101499 " transform="matrix(1.104972,0,0,1.084882,0,0.132597)"/>
<path style="fill:none;stroke-width:0.2074;stroke-linecap:butt;stroke-linejoin:miter;stroke:rgb(20%,20%,20%);stroke-opacity:1;stroke-miterlimit:10;" d="M 21.900293 11.298951 C 21.900293 12.62398 20.825605 13.700566 19.499922 13.700566 C 18.174238 13.700566 17.099551 12.62398 17.099551 11.298951 C 17.099551 9.973922 18.174238 8.900937 19.499922 8.900937 C 20.825605 8.900937 21.900293 9.973922 21.900293 11.298951 Z M 21.900293 11.298951 " transform="matrix(1.104972,0,0,1.084882,0,0.132597)"/>
<path style="fill:none;stroke-width:0.2074;stroke-linecap:butt;stroke-linejoin:miter;stroke:rgb(20%,20%,20%);stroke-opacity:1;stroke-miterlimit:10;" d="M 29.698848 9.599457 C 29.200391 9.801092 28.698398 9.999127 28.100957 9.999127 C 26.301563 9.999127 24.799121 8.699302 24.498633 6.999808 " transform="matrix(1.104972,0,0,1.084882,0,0.132597)"/>
<path style="fill:none;stroke-width:0.2074;stroke-linecap:butt;stroke-linejoin:miter;stroke:rgb(20%,20%,20%);stroke-opacity:1;stroke-miterlimit:10;" d="M 28.199941 18.399378 C 28.199941 19.616388 27.213633 20.599358 26.001074 20.599358 C 24.78498 20.599358 23.798672 19.616388 23.798672 18.399378 C 23.798672 17.185968 24.78498 16.199398 26.001074 16.199398 C 27.213633 16.199398 28.199941 17.185968 28.199941 18.399378 Z M 28.199941 18.399378 " transform="matrix(1.104972,0,0,1.084882,0,0.132597)"/>
<path style="fill:none;stroke-width:0.2074;stroke-linecap:butt;stroke-linejoin:miter;stroke:rgb(20%,20%,20%);stroke-opacity:1;stroke-miterlimit:10;" d="M 6.200664 26.601595 C 6.398633 26.500778 6.600137 26.500778 6.801641 26.500778 C 8.000059 26.500778 9.000508 27.501751 9.000508 28.700758 C 9.000508 29.100427 8.901523 29.399278 8.799004 29.701731 " transform="matrix(1.104972,0,0,1.084882,0,0.132597)"/>
<path style="fill:none;stroke-width:0.2074;stroke-linecap:butt;stroke-linejoin:miter;stroke:rgb(20%,20%,20%);stroke-opacity:1;stroke-miterlimit:10;" d="M 18.301504 22.900156 C 18.301504 24.668061 16.86623 26.101109 15.098652 26.101109 C 13.331074 26.101109 11.899336 24.668061 11.899336 22.900156 C 11.899336 21.13225 13.331074 19.699202 15.098652 19.699202 C 16.86623 19.699202 18.301504 21.13225 18.301504 22.900156 Z M 18.301504 22.900156 " transform="matrix(1.104972,0,0,1.084882,0,0.132597)"/>
<path style="fill:none;stroke-width:0.2074;stroke-linecap:butt;stroke-linejoin:miter;stroke:rgb(20%,20%,20%);stroke-opacity:1;stroke-miterlimit:10;" d="M 22.801758 29.500096 C 22.999727 26.500778 25.499082 23.998345 28.599414 23.998345 C 28.998887 23.998345 29.299375 23.998345 29.698848 24.099163 " transform="matrix(1.104972,0,0,1.084882,0,0.132597)"/>
</g>
</svg>
