<?xml version="1.0" encoding="UTF-8"?>
<svg xmlns="http://www.w3.org/2000/svg" xmlns:xlink="http://www.w3.org/1999/xlink" width="40pt" height="48pt" viewBox="0 0 40 48" version="1.1">
<g id="surface1">
<path style="fill:none;stroke-width:0.5589;stroke-linecap:butt;stroke-linejoin:miter;stroke:rgb(20%,20%,20%);stroke-opacity:1;stroke-miterlimit:10;" d="M 0.201504 0.299051 L 35.899512 0.299051 L 35.899512 43.801767 L 0.201504 43.801767 Z M 0.201504 0.299051 " transform="matrix(1.104972,0,0,1.084882,0,0.132597)"/>
<path style="fill:none;stroke-width:0.5589;stroke-linecap:butt;stroke-linejoin:miter;stroke:rgb(20%,20%,20%);stroke-opacity:1;stroke-miterlimit:10;" d="M 3.298301 7.500295 L 32.901699 7.500295 C 33.499141 7.500295 34.001133 6.999808 34.001133 6.398504 L 34.001133 5.001463 C 34.001133 4.400159 33.499141 3.899673 32.901699 3.899673 L 3.298301 3.899673 C 2.700859 3.899673 2.198867 4.400159 2.198867 5.001463 L 2.198867 6.398504 C 2.198867 6.999808 2.700859 7.500295 3.298301 7.500295 Z M 3.298301 7.500295 " transform="matrix(1.104972,0,0,1.084882,0,0.132597)"/>
<path style="fill:none;stroke-width:0.5062;stroke-linecap:round;stroke-linejoin:round;stroke:rgb(20%,20%,20%);stroke-opacity:1;stroke-miterlimit:10;" d="M 6.10168 3.899673 L 6.10168 7.500295 " transform="matrix(1.104972,0,0,1.084882,0,0.132597)"/>
<path style="fill:none;stroke-width:0.5062;stroke-linecap:round;stroke-linejoin:round;stroke:rgb(20%,20%,20%);stroke-opacity:1;stroke-miterlimit:10;" d="M 30.09832 7.500295 L 30.09832 3.899673 " transform="matrix(1.104972,0,0,1.084882,0,0.132597)"/>
<path style="fill:none;stroke-width:0.5589;stroke-linecap:butt;stroke-linejoin:miter;stroke:rgb(20%,20%,20%);stroke-opacity:1;stroke-miterlimit:10;" d="M 4.701758 9.999127 L 8.498516 9.999127 L 8.498516 40.499996 L 4.701758 40.499996 Z M 4.701758 9.999127 " transform="matrix(1.104972,0,0,1.084882,0,0.132597)"/>
<path style="fill:none;stroke-width:0.5589;stroke-linecap:butt;stroke-linejoin:miter;stroke:rgb(20%,20%,20%);stroke-opacity:1;stroke-miterlimit:10;" d="M 8.498516 9.999127 L 12.298809 9.999127 L 12.298809 40.499996 L 8.498516 40.499996 Z M 8.498516 9.999127 " transform="matrix(1.104972,0,0,1.084882,0,0.132597)"/>
<path style="fill:none;stroke-width:0.5589;stroke-linecap:butt;stroke-linejoin:miter;stroke:rgb(20%,20%,20%);stroke-opacity:1;stroke-miterlimit:10;" d="M 12.298809 9.999127 L 16.099102 9.999127 L 16.099102 40.499996 L 12.298809 40.499996 Z M 12.298809 9.999127 " transform="matrix(1.104972,0,0,1.084882,0,0.132597)"/>
<path style="fill:none;stroke-width:0.5589;stroke-linecap:butt;stroke-linejoin:miter;stroke:rgb(20%,20%,20%);stroke-opacity:1;stroke-miterlimit:10;" d="M 16.099102 9.999127 L 19.899395 9.999127 L 19.899395 40.499996 L 16.099102 40.499996 Z M 16.099102 9.999127 " transform="matrix(1.104972,0,0,1.084882,0,0.132597)"/>
<path style="fill:none;stroke-width:0.5589;stroke-linecap:butt;stroke-linejoin:miter;stroke:rgb(20%,20%,20%);stroke-opacity:1;stroke-miterlimit:10;" d="M 19.80041 9.999127 L 23.600703 9.999127 L 23.600703 40.499996 L 19.80041 40.499996 Z M 19.80041 9.999127 " transform="matrix(1.104972,0,0,1.084882,0,0.132597)"/>
<path style="fill:none;stroke-width:0.5589;stroke-linecap:butt;stroke-linejoin:miter;stroke:rgb(20%,20%,20%);stroke-opacity:1;stroke-miterlimit:10;" d="M 23.600703 9.999127 L 27.400996 9.999127 L 27.400996 40.499996 L 23.600703 40.499996 Z M 23.600703 9.999127 " transform="matrix(1.104972,0,0,1.084882,0,0.132597)"/>
<path style="fill:none;stroke-width:0.5589;stroke-linecap:butt;stroke-linejoin:miter;stroke:rgb(20%,20%,20%);stroke-opacity:1;stroke-miterlimit:10;" d="M 27.400996 9.999127 L 31.201289 9.999127 L 31.201289 40.499996 L 27.400996 40.499996 Z M 27.400996 9.999127 " transform="matrix(1.104972,0,0,1.084882,0,0.132597)"/>
<path style="fill:none;stroke-width:0.5589;stroke-linecap:butt;stroke-linejoin:miter;stroke:rgb(20%,20%,20%);stroke-opacity:1;stroke-miterlimit:10;" d="M 7.098594 7.601112 L 10.198926 7.601112 L 10.198926 9.999127 L 7.098594 9.999127 Z M 7.098594 7.601112 " transform="matrix(1.104972,0,0,1.084882,0,0.132597)"/>
<path style="fill:none;stroke-width:0.5589;stroke-linecap:butt;stroke-linejoin:miter;stroke:rgb(20%,20%,20%);stroke-opacity:1;stroke-miterlimit:10;" d="M 10.198926 7.601112 L 13.299258 7.601112 L 13.299258 9.999127 L 10.198926 9.999127 Z M 10.198926 7.601112 " transform="matrix(1.104972,0,0,1.084882,0,0.132597)"/>
<path style="fill:none;stroke-width:0.5589;stroke-linecap:butt;stroke-linejoin:miter;stroke:rgb(20%,20%,20%);stroke-opacity:1;stroke-miterlimit:10;" d="M 13.299258 7.601112 L 16.39959 7.601112 L 16.39959 9.999127 L 13.299258 9.999127 Z M 13.299258 7.601112 " transform="matrix(1.104972,0,0,1.084882,0,0.132597)"/>
<path style="fill:none;stroke-width:0.5589;stroke-linecap:butt;stroke-linejoin:miter;stroke:rgb(20%,20%,20%);stroke-opacity:1;stroke-miterlimit:10;" d="M 16.39959 7.601112 L 19.499922 7.601112 L 19.499922 9.999127 L 16.39959 9.999127 Z M 16.39959 7.601112 " transform="matrix(1.104972,0,0,1.084882,0,0.132597)"/>
<path style="fill:none;stroke-width:0.5589;stroke-linecap:butt;stroke-linejoin:miter;stroke:rgb(20%,20%,20%);stroke-opacity:1;stroke-miterlimit:10;" d="M 19.499922 7.601112 L 22.600254 7.601112 L 22.600254 9.999127 L 19.499922 9.999127 Z M 19.499922 7.601112 " transform="matrix(1.104972,0,0,1.084882,0,0.132597)"/>
<path style="fill:none;stroke-width:0.5589;stroke-linecap:butt;stroke-linejoin:miter;stroke:rgb(20%,20%,20%);stroke-opacity:1;stroke-miterlimit:10;" d="M 22.600254 7.601112 L 25.700586 7.601112 L 25.700586 9.999127 L 22.600254 9.999127 Z M 22.600254 7.601112 " transform="matrix(1.104972,0,0,1.084882,0,0.132597)"/>
<path style="fill:none;stroke-width:0.5589;stroke-linecap:butt;stroke-linejoin:miter;stroke:rgb(20%,20%,20%);stroke-opacity:1;stroke-miterlimit:10;" d="M 25.700586 7.601112 L 28.800918 7.601112 L 28.800918 9.999127 L 25.700586 9.999127 Z M 25.700586 7.601112 " transform="matrix(1.104972,0,0,1.084882,0,0.132597)"/>
<path style="fill:none;stroke-width:0.5589;stroke-linecap:butt;stroke-linejoin:miter;stroke:rgb(20%,20%,20%);stroke-opacity:1;stroke-miterlimit:10;" d="M 4.701758 37.198226 L 27.298477 37.198226 " transform="matrix(1.104972,0,0,1.084882,0,0.132597)"/>
</g>
</svg>
