<?xml version="1.0" encoding="UTF-8"?>
<svg xmlns="http://www.w3.org/2000/svg" xmlns:xlink="http://www.w3.org/1999/xlink" width="40pt" height="48pt" viewBox="0 0 40 48" version="1.1">
<g id="surface1">
<path style="fill:none;stroke-width:0.5589;stroke-linecap:butt;stroke-linejoin:miter;stroke:rgb(20%,20%,20%);stroke-opacity:1;stroke-miterlimit:10;" d="M 0.300488 0.299051 L 35.998496 0.299051 L 35.998496 43.801767 L 0.300488 43.801767 Z M 0.300488 0.299051 " transform="matrix(1.104972,0,0,1.084882,0,0.132597)"/>
<path style="fill:none;stroke-width:0.5589;stroke-linecap:butt;stroke-linejoin:miter;stroke:rgb(20%,20%,20%);stroke-opacity:1;stroke-miterlimit:10;" d="M 4.100781 7.500295 L 32.300723 7.500295 C 33.301172 7.500295 34.100117 6.700957 34.100117 5.699984 C 34.100117 4.699011 33.301172 3.899673 32.300723 3.899673 L 4.100781 3.899673 C 3.100332 3.899673 2.301387 4.699011 2.301387 5.699984 C 2.301387 6.700957 3.100332 7.500295 4.100781 7.500295 Z M 4.100781 7.500295 " transform="matrix(1.104972,0,0,1.084882,0,0.132597)"/>
<path style="fill:none;stroke-width:0.5659;stroke-linecap:butt;stroke-linejoin:miter;stroke:rgb(20%,20%,20%);stroke-opacity:1;stroke-miterlimit:10;" d="M 33.198652 11.601403 L 2.799844 11.601403 L 3.899277 7.500295 L 32.201738 7.500295 Z M 33.198652 11.601403 " transform="matrix(1.104972,0,0,1.084882,0,0.132597)"/>
<path style="fill:none;stroke-width:0.5659;stroke-linecap:butt;stroke-linejoin:miter;stroke:rgb(20%,20%,20%);stroke-opacity:1;stroke-miterlimit:10;" d="M 33.198652 15.698911 L 2.799844 15.698911 L 3.899277 11.601403 L 32.201738 11.601403 Z M 33.198652 15.698911 " transform="matrix(1.104972,0,0,1.084882,0,0.132597)"/>
<path style="fill:none;stroke-width:0.5659;stroke-linecap:butt;stroke-linejoin:miter;stroke:rgb(20%,20%,20%);stroke-opacity:1;stroke-miterlimit:10;" d="M 33.198652 19.80002 L 2.799844 19.80002 L 3.899277 15.698911 L 32.201738 15.698911 Z M 33.198652 19.80002 " transform="matrix(1.104972,0,0,1.084882,0,0.132597)"/>
<path style="fill:none;stroke-width:0.5659;stroke-linecap:butt;stroke-linejoin:miter;stroke:rgb(20%,20%,20%);stroke-opacity:1;stroke-miterlimit:10;" d="M 33.198652 23.800311 L 2.799844 23.800311 L 3.899277 19.80002 L 32.201738 19.80002 Z M 33.198652 23.800311 " transform="matrix(1.104972,0,0,1.084882,0,0.132597)"/>
<path style="fill:none;stroke-width:0.5659;stroke-linecap:butt;stroke-linejoin:miter;stroke:rgb(20%,20%,20%);stroke-opacity:1;stroke-miterlimit:10;" d="M 33.198652 27.90142 L 2.799844 27.90142 L 3.899277 23.800311 L 32.201738 23.800311 Z M 33.198652 27.90142 " transform="matrix(1.104972,0,0,1.084882,0,0.132597)"/>
<path style="fill:none;stroke-width:0.5659;stroke-linecap:butt;stroke-linejoin:miter;stroke:rgb(20%,20%,20%);stroke-opacity:1;stroke-miterlimit:10;" d="M 33.198652 31.998928 L 2.799844 31.998928 L 3.899277 27.90142 L 32.201738 27.90142 Z M 33.198652 31.998928 " transform="matrix(1.104972,0,0,1.084882,0,0.132597)"/>
<path style="fill:none;stroke-width:0.5659;stroke-linecap:butt;stroke-linejoin:miter;stroke:rgb(20%,20%,20%);stroke-opacity:1;stroke-miterlimit:10;" d="M 33.198652 36.100036 L 2.799844 36.100036 L 3.899277 31.998928 L 32.201738 31.998928 Z M 33.198652 36.100036 " transform="matrix(1.104972,0,0,1.084882,0,0.132597)"/>
<path style="fill:none;stroke-width:0.5659;stroke-linecap:butt;stroke-linejoin:miter;stroke:rgb(20%,20%,20%);stroke-opacity:1;stroke-miterlimit:10;" d="M 33.198652 40.201145 L 2.799844 40.201145 L 3.899277 36.100036 L 32.201738 36.100036 Z M 33.198652 40.201145 " transform="matrix(1.104972,0,0,1.084882,0,0.132597)"/>
<path style="fill:none;stroke-width:0.5659;stroke-linecap:butt;stroke-linejoin:miter;stroke:rgb(20%,20%,20%);stroke-opacity:1;stroke-miterlimit:10;" d="M 8.799004 7.500295 L 8.799004 40.201145 " transform="matrix(1.104972,0,0,1.084882,0,0.132597)"/>
<path style="fill:none;stroke-width:0.5659;stroke-linecap:butt;stroke-linejoin:miter;stroke:rgb(20%,20%,20%);stroke-opacity:1;stroke-miterlimit:10;" d="M 11.199375 7.500295 L 11.199375 40.201145 " transform="matrix(1.104972,0,0,1.084882,0,0.132597)"/>
<path style="fill:none;stroke-width:0.5659;stroke-linecap:butt;stroke-linejoin:miter;stroke:rgb(20%,20%,20%);stroke-opacity:1;stroke-miterlimit:10;" d="M 25.000625 7.500295 L 25.000625 40.201145 " transform="matrix(1.104972,0,0,1.084882,0,0.132597)"/>
<path style="fill:none;stroke-width:0.5659;stroke-linecap:butt;stroke-linejoin:miter;stroke:rgb(20%,20%,20%);stroke-opacity:1;stroke-miterlimit:10;" d="M 27.49998 7.500295 L 27.49998 40.201145 " transform="matrix(1.104972,0,0,1.084882,0,0.132597)"/>
<path style="fill:none;stroke-width:0.5659;stroke-linecap:butt;stroke-linejoin:miter;stroke:rgb(20%,20%,20%);stroke-opacity:1;stroke-miterlimit:10;" d="M 29.500879 7.500295 L 29.500879 25.899474 " transform="matrix(1.104972,0,0,1.084882,0,0.132597)"/>
</g>
</svg>
