<?xml version="1.0" encoding="UTF-8"?>
<svg xmlns="http://www.w3.org/2000/svg" xmlns:xlink="http://www.w3.org/1999/xlink" width="24pt" height="28pt" viewBox="0 0 24 28" version="1.1">
<g id="surface1">
<path style=" stroke:none;fill-rule:nonzero;fill:rgb(68.627451%,68.627451%,68.627451%);fill-opacity:1;" d="M 4.109375 4.539062 L 19.757812 4.539062 L 19.757812 18.875 L 4.109375 18.875 Z M 4.109375 4.539062 "/>
<path style="fill:none;stroke-width:0.579;stroke-linecap:butt;stroke-linejoin:miter;stroke:rgb(20%,20%,20%);stroke-opacity:1;stroke-miterlimit:10;" d="M 0.300488 0.300742 L 35.999698 0.300742 L 35.999698 43.798666 L 0.300488 43.798666 Z M 0.300488 0.300742 " transform="matrix(0.662983,0,0,0.637243,0,0.0778852)"/>
<path style="fill:none;stroke-width:0.579;stroke-linecap:butt;stroke-linejoin:miter;stroke:rgb(20%,20%,20%);stroke-opacity:1;stroke-miterlimit:10;" d="M 4.000621 7.000747 L 32.199402 7.000747 C 33.20103 7.000747 34.002333 6.203857 34.002333 5.19855 C 34.002333 4.199373 33.20103 3.402483 32.199402 3.402483 L 4.000621 3.402483 C 2.998993 3.402483 2.19769 4.199373 2.19769 5.19855 C 2.19769 6.203857 3.099156 7.000747 4.000621 7.000747 Z M 4.000621 7.000747 " transform="matrix(0.662983,0,0,0.637243,0,0.0778852)"/>
<path style="fill:none;stroke-width:0.579;stroke-linecap:butt;stroke-linejoin:miter;stroke:rgb(20%,20%,20%);stroke-opacity:1;stroke-miterlimit:10;" d="M 6.198311 31.600122 L 17.799523 31.600122 L 17.799523 40.200402 L 6.198311 40.200402 Z M 6.198311 31.600122 " transform="matrix(0.662983,0,0,0.637243,0,0.0778852)"/>
<path style="fill:none;stroke-width:0.579;stroke-linecap:butt;stroke-linejoin:miter;stroke:rgb(20%,20%,20%);stroke-opacity:1;stroke-miterlimit:10;" d="M 17.799523 31.600122 L 29.801386 31.600122 L 29.801386 40.200402 L 17.799523 40.200402 Z M 17.799523 31.600122 " transform="matrix(0.662983,0,0,0.637243,0,0.0778852)"/>
<path style="fill:none;stroke-width:0.579;stroke-linecap:butt;stroke-linejoin:miter;stroke:rgb(20%,20%,20%);stroke-opacity:1;stroke-miterlimit:10;" d="M 33.501519 7.999924 L 33.501519 9.299467 " transform="matrix(0.662983,0,0,0.637243,0,0.0778852)"/>
<path style="fill:none;stroke-width:0.579;stroke-linecap:butt;stroke-linejoin:miter;stroke:rgb(20%,20%,20%);stroke-opacity:1;stroke-dasharray:2.86,2.86;stroke-miterlimit:10;" d="M 33.501519 12.100842 L 33.501519 27.799571 " transform="matrix(0.662983,0,0,0.637243,0,0.0778852)"/>
<path style="fill:none;stroke-width:0.579;stroke-linecap:butt;stroke-linejoin:miter;stroke:rgb(20%,20%,20%);stroke-opacity:1;stroke-miterlimit:10;" d="M 33.501519 29.301402 L 33.501519 30.600945 " transform="matrix(0.662983,0,0,0.637243,0,0.0778852)"/>
<path style="fill:none;stroke-width:1.31;stroke-linecap:butt;stroke-linejoin:miter;stroke:rgb(20%,20%,20%);stroke-opacity:1;stroke-miterlimit:10;" d="M 33.501519 31.600122 L 33.501519 34.996099 " transform="matrix(0.662983,0,0,0.637243,0,0.0778852)"/>
<path style="fill:none;stroke-width:0.579;stroke-linecap:butt;stroke-linejoin:miter;stroke:rgb(20%,20%,20%);stroke-opacity:1;stroke-miterlimit:10;" d="M 4.000621 7.000747 L 6.098148 7.000747 L 6.098148 40.200402 L 4.000621 40.200402 Z M 4.000621 7.000747 " transform="matrix(0.662983,0,0,0.637243,0,0.0778852)"/>
<path style="fill:none;stroke-width:0.579;stroke-linecap:butt;stroke-linejoin:miter;stroke:rgb(20%,20%,20%);stroke-opacity:1;stroke-miterlimit:10;" d="M 29.801386 7.000747 L 31.898914 7.000747 L 31.898914 40.200402 L 29.801386 40.200402 Z M 29.801386 7.000747 " transform="matrix(0.662983,0,0,0.637243,0,0.0778852)"/>
<path style="fill:none;stroke-width:0.579;stroke-linecap:butt;stroke-linejoin:miter;stroke:rgb(20%,20%,20%);stroke-opacity:1;stroke-miterlimit:10;" d="M 6.198311 29.595638 L 29.801386 29.595638 L 29.801386 31.600122 L 6.198311 31.600122 Z M 6.198311 29.595638 " transform="matrix(0.662983,0,0,0.637243,0,0.0778852)"/>
</g>
</svg>
