<?xml version="1.0" encoding="UTF-8"?>
<svg xmlns="http://www.w3.org/2000/svg" xmlns:xlink="http://www.w3.org/1999/xlink" width="35pt" height="39pt" viewBox="0 0 35 39" version="1.1">
<g id="surface1">
<path style="fill:none;stroke-width:0.4802;stroke-linecap:round;stroke-linejoin:round;stroke:rgb(20%,20%,20%);stroke-opacity:1;stroke-miterlimit:10;" d="M 36.500089 2.800681 L 3.301478 2.800681 " transform="matrix(0.87306,0,0,0.864745,0.0824557,0)"/>
<path style="fill:none;stroke-width:0.4802;stroke-linecap:round;stroke-linejoin:round;stroke:rgb(20%,20%,20%);stroke-opacity:1;stroke-miterlimit:10;" d="M 3.198571 1.102204 L 36.701429 1.102204 " transform="matrix(0.87306,0,0,0.864745,0.0824557,0)"/>
<path style="fill:none;stroke-width:0.4802;stroke-linecap:round;stroke-linejoin:round;stroke:rgb(20%,20%,20%);stroke-opacity:1;stroke-miterlimit:10;" d="M 3.60125 2.001132 C 3.60125 2.773578 2.974861 3.401472 2.200823 3.401472 C 1.426786 3.401472 0.800397 2.773578 0.800397 2.001132 C 0.800397 1.228686 1.426786 0.600791 2.200823 0.600791 C 2.974861 0.600791 3.60125 1.228686 3.60125 2.001132 Z M 3.60125 2.001132 " transform="matrix(0.87306,0,0,0.864745,0.0824557,0)"/>
<path style="fill:none;stroke-width:0.4802;stroke-linecap:round;stroke-linejoin:round;stroke:rgb(20%,20%,20%);stroke-opacity:1;stroke-miterlimit:10;" d="M 39.099603 2.001132 C 39.099603 2.773578 38.473214 3.401472 37.699177 3.401472 C 36.925139 3.401472 36.29875 2.773578 36.29875 2.001132 C 36.29875 1.228686 36.925139 0.600791 37.699177 0.600791 C 38.473214 0.600791 39.099603 1.228686 39.099603 2.001132 Z M 39.099603 2.001132 " transform="matrix(0.87306,0,0,0.864745,0.0824557,0)"/>
<path style="fill:none;stroke-width:0.4802;stroke-linecap:round;stroke-linejoin:round;stroke:rgb(20%,20%,20%);stroke-opacity:1;stroke-miterlimit:10;" d="M 11.699563 2.800681 L 3.498343 2.800681 L 3.60125 44.499209 L 4.299226 43.898417 C 5.001677 43.302143 5.999425 43.302143 6.701875 43.799038 L 6.89874 43.997796 C 7.399851 44.300451 7.999395 44.300451 8.402073 43.997796 C 9.10005 43.401522 10.097798 43.401522 10.800248 43.898417 L 11.001587 43.997796 C 11.498224 44.39983 12.097768 44.300451 12.500446 43.997796 C 13.198423 43.401522 14.200645 43.401522 14.898621 43.898417 L 15.001528 43.997796 C 15.498165 44.300451 16.102183 44.300451 16.500387 43.997796 C 17.198363 43.401522 18.200585 43.401522 18.898562 43.898417 L 19.797877 44.598588 L 19.900784 4.901192 " transform="matrix(0.87306,0,0,0.864745,0.0824557,0)"/>
<path style="fill:none;stroke-width:0.4802;stroke-linecap:round;stroke-linejoin:round;stroke:rgb(20%,20%,20%);stroke-opacity:1;stroke-miterlimit:10;" d="M 19.999216 44.598588 L 20.800099 43.997796 C 21.498075 43.401522 22.500298 43.401522 23.301181 43.898417 L 23.399613 43.997796 C 23.900724 44.300451 24.500268 44.300451 24.898472 43.997796 C 25.600923 43.401522 26.598671 43.401522 27.399554 43.898417 L 27.497986 43.997796 C 27.999097 44.39983 28.598641 44.300451 29.001319 43.997796 C 29.699296 43.401522 30.701518 43.401522 31.497927 43.898417 L 31.600833 43.997796 C 32.101944 44.300451 32.701488 44.300451 33.099692 43.997796 C 33.802143 43.401522 34.799891 43.401522 35.600774 43.898417 L 36.500089 44.598588 L 36.401657 2.800681 " transform="matrix(0.87306,0,0,0.864745,0.0824557,0)"/>
<path style="fill:none;stroke-width:0.4802;stroke-linecap:round;stroke-linejoin:round;stroke:rgb(20%,20%,20%);stroke-opacity:1;stroke-miterlimit:10;" d="M 7.60119 44.201072 L 7.60119 4.901192 " transform="matrix(0.87306,0,0,0.864745,0.0824557,0)"/>
<path style="fill:none;stroke-width:0.4802;stroke-linecap:round;stroke-linejoin:round;stroke:rgb(20%,20%,20%);stroke-opacity:1;stroke-miterlimit:10;" d="M 11.699563 44.201072 L 11.699563 4.901192 " transform="matrix(0.87306,0,0,0.864745,0.0824557,0)"/>
<path style="fill:none;stroke-width:0.4802;stroke-linecap:round;stroke-linejoin:round;stroke:rgb(20%,20%,20%);stroke-opacity:1;stroke-miterlimit:10;" d="M 15.797937 44.201072 L 15.797937 4.901192 " transform="matrix(0.87306,0,0,0.864745,0.0824557,0)"/>
<path style="fill:none;stroke-width:0.4802;stroke-linecap:round;stroke-linejoin:round;stroke:rgb(20%,20%,20%);stroke-opacity:1;stroke-miterlimit:10;" d="M 24.102063 44.201072 L 24.102063 4.901192 " transform="matrix(0.87306,0,0,0.864745,0.0824557,0)"/>
<path style="fill:none;stroke-width:0.4802;stroke-linecap:round;stroke-linejoin:round;stroke:rgb(20%,20%,20%);stroke-opacity:1;stroke-miterlimit:10;" d="M 28.200437 44.201072 L 28.200437 4.901192 " transform="matrix(0.87306,0,0,0.864745,0.0824557,0)"/>
<path style="fill:none;stroke-width:0.4802;stroke-linecap:round;stroke-linejoin:round;stroke:rgb(20%,20%,20%);stroke-opacity:1;stroke-miterlimit:10;" d="M 32.29881 44.201072 L 32.29881 4.901192 " transform="matrix(0.87306,0,0,0.864745,0.0824557,0)"/>
</g>
</svg>
