<?xml version="1.0" encoding="UTF-8"?>
<svg xmlns="http://www.w3.org/2000/svg" xmlns:xlink="http://www.w3.org/1999/xlink" width="76pt" height="40pt" viewBox="0 0 76 40" version="1.1">
<g id="surface1">
<path style="fill:none;stroke-width:1.1339;stroke-linecap:round;stroke-linejoin:round;stroke:rgb(80.784314%,20.392157%,20.392157%);stroke-opacity:1;stroke-miterlimit:10;" d="M 14.799483 20.29918 L 12.100111 20.29918 L 12.100111 0.700547 L 33.000408 0.700547 L 33.000408 20.29918 L 20.90011 20.29918 " transform="matrix(1.625089,0,0,1.639344,0.78546,0)"/>
<path style="fill:none;stroke-width:1.1339;stroke-linecap:round;stroke-linejoin:round;stroke:rgb(80.784314%,20.392157%,20.392157%);stroke-opacity:1;stroke-miterlimit:10;" d="M 33.000408 6.1 L 39.000079 6.1 L 45.100706 12.800469 L 45.100706 20.29918 L 42.10087 20.29918 " transform="matrix(1.625089,0,0,1.639344,0.78546,0)"/>
<path style="fill:none;stroke-width:1.1339;stroke-linecap:round;stroke-linejoin:round;stroke:rgb(80.784314%,20.392157%,20.392157%);stroke-opacity:1;stroke-miterlimit:10;" d="M 20.90011 20.199102 C 20.90011 21.912344 19.513166 23.299141 17.799318 23.299141 C 16.087873 23.299141 14.70093 21.912344 14.70093 20.199102 C 14.70093 18.488242 16.087873 17.099062 17.799318 17.099062 C 19.513166 17.099062 20.90011 18.488242 20.90011 20.199102 Z M 20.90011 20.199102 " transform="matrix(1.625089,0,0,1.639344,0.78546,0)"/>
<path style="fill:none;stroke-width:1.1339;stroke-linecap:round;stroke-linejoin:round;stroke:rgb(80.784314%,20.392157%,20.392157%);stroke-opacity:1;stroke-miterlimit:10;" d="M 42.199423 20.199102 C 42.199423 21.912344 40.812479 23.299141 39.101035 23.299141 C 37.387186 23.299141 36.000243 21.912344 36.000243 20.199102 C 36.000243 18.488242 37.387186 17.099062 39.101035 17.099062 C 40.812479 17.099062 42.199423 18.488242 42.199423 20.199102 Z M 42.199423 20.199102 " transform="matrix(1.625089,0,0,1.639344,0.78546,0)"/>
<path style="fill:none;stroke-width:1.1339;stroke-linecap:round;stroke-linejoin:round;stroke:rgb(80.784314%,20.392157%,20.392157%);stroke-opacity:1;stroke-miterlimit:10;" d="M 33.000408 20.29918 L 36.000243 20.29918 " transform="matrix(1.625089,0,0,1.639344,0.78546,0)"/>
<path style="fill:none;stroke-width:1.1339;stroke-linecap:round;stroke-linejoin:round;stroke:rgb(80.784314%,20.392157%,20.392157%);stroke-opacity:1;stroke-miterlimit:10;" d="M 8.499347 10.501055 L 0.699294 10.501055 " transform="matrix(1.625089,0,0,1.639344,0.78546,0)"/>
<path style="fill:none;stroke-width:1.1339;stroke-linecap:round;stroke-linejoin:round;stroke:rgb(80.784314%,20.392157%,20.392157%);stroke-opacity:1;stroke-miterlimit:10;" d="M 11.799647 2.899883 L 6.600413 2.899883 " transform="matrix(1.625089,0,0,1.639344,0.78546,0)"/>
<path style="fill:none;stroke-width:1.1339;stroke-linecap:round;stroke-linejoin:round;stroke:rgb(80.784314%,20.392157%,20.392157%);stroke-opacity:1;stroke-miterlimit:10;" d="M 8.100331 18.099844 L 7.198938 18.099844 " transform="matrix(1.625089,0,0,1.639344,0.78546,0)"/>
</g>
</svg>
