<?xml version="1.0" encoding="UTF-8"?>
<svg xmlns="http://www.w3.org/2000/svg" xmlns:xlink="http://www.w3.org/1999/xlink" width="31pt" height="39pt" viewBox="0 0 31 39" version="1.1">
<g id="surface1">
<path style="fill:none;stroke-width:1.1339;stroke-linecap:round;stroke-linejoin:round;stroke:rgb(191, 158, 68);stroke-opacity:1;stroke-miterlimit:10;" d="M 17.400512 25.101683 L 13.99942 28.301202 L 10.701499 25.101683 L 6.101487 25.701593 L 5.201407 21.200451 L 1.099462 19.000781 L 3.098849 14.699609 L 1.099462 10.50024 L 5.201407 8.300571 L 5.998316 3.701262 L 10.598328 4.301172 L 13.99942 1.101653 L 17.400512 4.301172 L 22.000525 3.701262 L 22.800991 8.198768 L 26.899378 10.398438 L 24.999605 14.601442 L 26.899378 18.898978 L 22.900605 21.098648 L 22.000525 25.701593 Z M 17.400512 25.101683 " transform="matrix(1.097993,0,0,1.07438,0.292798,0)"/>
<path style="fill:none;stroke-width:1.1339;stroke-linecap:round;stroke-linejoin:round;stroke:rgb(191, 158, 68);stroke-opacity:1;stroke-miterlimit:10;" d="M 22.100139 14.801412 C 22.100139 19.382542 18.382418 23.098347 13.800193 23.098347 C 9.214411 23.098347 5.500248 19.382542 5.500248 14.801412 C 5.500248 10.216647 9.214411 6.500841 13.800193 6.500841 C 18.382418 6.500841 22.100139 10.216647 22.100139 14.801412 Z M 22.100139 14.801412 " transform="matrix(1.097993,0,0,1.07438,0.292798,0)"/>
<path style="fill:none;stroke-width:1.1339;stroke-linecap:round;stroke-linejoin:round;stroke:rgb(191, 158, 68);stroke-opacity:1;stroke-miterlimit:10;" d="M 13.899807 9.598558 L 15.500739 12.69991 L 19.001445 13.29982 L 16.500433 15.699459 L 17.101672 19.200751 L 13.899807 17.499189 L 10.801113 19.200751 L 11.398795 15.699459 L 8.90134 13.29982 L 12.398488 12.69991 Z M 13.899807 9.598558 " transform="matrix(1.097993,0,0,1.07438,0.292798,0)"/>
<path style="fill:none;stroke-width:1.1339;stroke-linecap:round;stroke-linejoin:round;stroke:rgb(191, 158, 68);stroke-opacity:1;stroke-miterlimit:10;" d="M 23.000218 21.400421 L 26.098912 33.998528 L 22.601764 31.900661 L 20.399593 35.50012 L 17.89858 25.101683 " transform="matrix(1.097993,0,0,1.07438,0.292798,0)"/>
<path style="fill:none;stroke-width:1.1339;stroke-linecap:round;stroke-linejoin:round;stroke:rgb(191, 158, 68);stroke-opacity:1;stroke-miterlimit:10;" d="M 4.899009 21.400421 L 1.800315 33.998528 L 5.301021 31.900661 L 7.499635 35.50012 L 10.000647 25.101683 " transform="matrix(1.097993,0,0,1.07438,0.292798,0)"/>
</g>
</svg>
