<?xml version="1.0" encoding="UTF-8"?>
<svg xmlns="http://www.w3.org/2000/svg" xmlns:xlink="http://www.w3.org/1999/xlink" width="76pt" height="40pt" viewBox="0 0 76 40" version="1.1">
<g id="surface1">
<path style="fill:none;stroke-width:1.1339;stroke-linecap:butt;stroke-linejoin:round;stroke:rgb(191, 158, 68);stroke-opacity:1;stroke-miterlimit:10;" d="M 15.200651 -5.699259 L 28.900485 -5.699259 L 28.900485 36.699954 L 15.200651 36.699954 Z M 15.200651 -5.699259 " transform="matrix(0.000000000000000105,-1.731602,1.719795,0.000000000000000106,11.465621,64.954286)"/>
<path style="fill:none;stroke-width:1.1339;stroke-linecap:round;stroke-linejoin:round;stroke:rgb(191, 158, 68);stroke-opacity:1;stroke-miterlimit:10;" d="M 6.800154 9.100137 L 6.800154 16.100068 " transform="matrix(1.719795,0,0,1.731602,0.164502,0)"/>
<path style="fill:none;stroke-width:1.1339;stroke-linecap:round;stroke-linejoin:round;stroke:rgb(191, 158, 68);stroke-opacity:1;stroke-miterlimit:10;" d="M 11.199751 9.100137 L 11.199751 13.099775 " transform="matrix(1.719795,0,0,1.731602,0.164502,0)"/>
<path style="fill:none;stroke-width:1.1339;stroke-linecap:round;stroke-linejoin:round;stroke:rgb(191, 158, 68);stroke-opacity:1;stroke-miterlimit:10;" d="M 15.599347 9.100137 L 15.599347 16.100068 " transform="matrix(1.719795,0,0,1.731602,0.164502,0)"/>
<path style="fill:none;stroke-width:1.1339;stroke-linecap:round;stroke-linejoin:round;stroke:rgb(191, 158, 68);stroke-opacity:1;stroke-miterlimit:10;" d="M 19.998944 9.100137 L 19.998944 13.099775 " transform="matrix(1.719795,0,0,1.731602,0.164502,0)"/>
<path style="fill:none;stroke-width:1.1339;stroke-linecap:round;stroke-linejoin:round;stroke:rgb(191, 158, 68);stroke-opacity:1;stroke-miterlimit:10;" d="M 24.600691 9.100137 L 24.600691 16.100068 " transform="matrix(1.719795,0,0,1.731602,0.164502,0)"/>
<path style="fill:none;stroke-width:1.1339;stroke-linecap:round;stroke-linejoin:round;stroke:rgb(191, 158, 68);stroke-opacity:1;stroke-miterlimit:10;" d="M 29.000288 9.100137 L 29.000288 13.099775 " transform="matrix(1.719795,0,0,1.731602,0.164502,0)"/>
<path style="fill:none;stroke-width:1.1339;stroke-linecap:butt;stroke-linejoin:round;stroke:rgb(191, 158, 68);stroke-opacity:1;stroke-miterlimit:10;" d="M 38.099299 15.50001 C 38.099299 16.659521 37.158962 17.600215 36.000576 17.600215 C 34.839918 17.600215 33.899581 16.659521 33.899581 15.50001 C 33.899581 14.340498 34.839918 13.399805 36.000576 13.399805 C 37.158962 13.399805 38.099299 14.340498 38.099299 15.50001 Z M 38.099299 15.50001 " transform="matrix(1.719795,0,0,1.731602,0.164502,0)"/>
<path style="fill:none;stroke-width:1.1339;stroke-linecap:round;stroke-linejoin:round;stroke:rgb(191, 158, 68);stroke-opacity:1;stroke-miterlimit:4;" d="M 43.200742 0.999346 L 40.400173 0.999346 " transform="matrix(1.719795,0,0,1.731602,0.164502,0)"/>
<path style="fill:none;stroke-width:1.1339;stroke-linecap:round;stroke-linejoin:round;stroke:rgb(191, 158, 68);stroke-opacity:1;stroke-dasharray:5.2463,5.2463;stroke-miterlimit:4;" d="M 35.201062 0.999346 L 6.300458 0.999346 " transform="matrix(1.719795,0,0,1.731602,0.164502,0)"/>
<path style="fill:none;stroke-width:1.1339;stroke-linecap:round;stroke-linejoin:round;stroke:rgb(191, 158, 68);stroke-opacity:1;stroke-miterlimit:4;" d="M 3.699767 0.999346 L 0.799258 0.999346 " transform="matrix(1.719795,0,0,1.731602,0.164502,0)"/>
</g>
</svg>
