<?xml version="1.0" encoding="UTF-8"?>
<svg xmlns="http://www.w3.org/2000/svg" xmlns:xlink="http://www.w3.org/1999/xlink" width="40pt" height="47pt" viewBox="0 0 40 47" version="1.1">
<g id="surface1">
<path style="fill:none;stroke-width:0.8172;stroke-linecap:butt;stroke-linejoin:miter;stroke:rgb(20%,20%,20%);stroke-opacity:1;stroke-miterlimit:10;" d="M 36.299894 3.199368 L 36.299894 3.800864 " transform="matrix(1.071342,0,0,1.058559,0.340881,0)"/>
<path style="fill:none;stroke-width:0.8172;stroke-linecap:butt;stroke-linejoin:miter;stroke:rgb(20%,20%,20%);stroke-opacity:1;stroke-dasharray:1.1798,1.1798;stroke-miterlimit:10;" d="M 36.299894 5.000166 L 36.299894 30.399535 " transform="matrix(1.071342,0,0,1.058559,0.340881,0)"/>
<path style="fill:none;stroke-width:0.8172;stroke-linecap:butt;stroke-linejoin:miter;stroke:rgb(20%,20%,20%);stroke-opacity:1;stroke-miterlimit:10;" d="M 36.299894 31.001031 L 36.299894 31.499202 " transform="matrix(1.071342,0,0,1.058559,0.340881,0)"/>
<path style="fill:none;stroke-width:1.1675;stroke-linecap:butt;stroke-linejoin:miter;stroke:rgb(20%,20%,20%);stroke-opacity:1;stroke-miterlimit:10;" d="M 36.299894 32.499235 L 36.299894 35.901563 " transform="matrix(1.071342,0,0,1.058559,0.340881,0)"/>
<path style="fill:none;stroke-width:1.0011;stroke-linecap:butt;stroke-linejoin:miter;stroke:rgb(20%,20%,20%);stroke-opacity:1;stroke-miterlimit:10;" d="M 0.498551 0.498172 L 36.299894 0.498172 L 36.299894 3.099734 L 0.498551 3.099734 Z M 0.498551 0.498172 " transform="matrix(1.071342,0,0,1.058559,0.340881,0)"/>
<path style="fill:none;stroke-width:1;stroke-linecap:butt;stroke-linejoin:miter;stroke:rgb(20%,20%,20%);stroke-opacity:1;stroke-miterlimit:10;" d="M 2.598722 3.0001 L 33.499667 3.0001 L 33.499667 43.901828 L 2.598722 43.901828 Z M 2.598722 3.0001 " transform="matrix(1.071342,0,0,1.058559,0.340881,0)"/>
</g>
</svg>
