<?xml version="1.0" encoding="UTF-8"?>
<svg xmlns="http://www.w3.org/2000/svg" xmlns:xlink="http://www.w3.org/1999/xlink" width="24pt" height="29pt" viewBox="0 0 24 29" version="1.1">
<g id="surface1">
<path style=" stroke:none;fill-rule:nonzero;fill:rgb(100%,100%,100%);fill-opacity:1;" d="M 566.015625 -56.191406 L -181.882812 -56.191406 L -181.882812 95.910156 L 1087.539062 95.910156 L 1087.539062 -56.191406 Z M 566.015625 -56.191406 "/>
<path style=" stroke:none;fill-rule:nonzero;fill:rgb(68.627451%,68.627451%,68.627451%);fill-opacity:1;" d="M 2.976562 6.296875 L 20.761719 6.296875 L 20.761719 8.714844 L 2.976562 8.714844 Z M 2.976562 6.296875 "/>
<path style=" stroke:none;fill-rule:nonzero;fill:rgb(68.627451%,68.627451%,68.627451%);fill-opacity:1;" d="M 2.976562 10.21875 L 20.761719 10.21875 L 20.761719 12.636719 L 2.976562 12.636719 Z M 2.976562 10.21875 "/>
<path style=" stroke:none;fill-rule:nonzero;fill:rgb(68.627451%,68.627451%,68.627451%);fill-opacity:1;" d="M 2.976562 14.207031 L 20.761719 14.207031 L 20.761719 16.625 L 2.976562 16.625 Z M 2.976562 14.207031 "/>
<path style=" stroke:none;fill-rule:nonzero;fill:rgb(68.627451%,68.627451%,68.627451%);fill-opacity:1;" d="M 2.976562 18.324219 L 20.761719 18.324219 L 20.761719 20.742188 L 2.976562 20.742188 Z M 2.976562 18.324219 "/>
<path style=" stroke:none;fill-rule:nonzero;fill:rgb(68.627451%,68.627451%,68.627451%);fill-opacity:1;" d="M 2.976562 22.375 L 20.761719 22.375 L 20.761719 24.792969 L 2.976562 24.792969 Z M 2.976562 22.375 "/>
<path style="fill:none;stroke-width:0.559;stroke-linecap:butt;stroke-linejoin:miter;stroke:rgb(20%,20%,20%);stroke-opacity:1;stroke-miterlimit:10;" d="M 0.301318 0.302923 L 35.998682 0.302923 L 35.998682 43.797077 L 0.301318 43.797077 Z M 0.301318 0.302923 " transform="matrix(0.661157,0,0,0.653644,0,0.0871525)"/>
<path style="fill:none;stroke-width:0.54;stroke-linecap:butt;stroke-linejoin:miter;stroke:rgb(20%,20%,20%);stroke-opacity:1;stroke-miterlimit:10;" d="M 4.502051 6.900552 L 31.69751 6.900552 C 32.701904 6.900552 33.399072 6.099753 33.399072 5.19736 C 33.399072 4.199349 32.601465 3.500144 31.69751 3.500144 L 4.502051 3.500144 C 3.497656 3.500144 2.800488 4.300943 2.800488 5.19736 C 2.800488 6.201347 3.598096 6.900552 4.502051 6.900552 Z M 4.502051 6.900552 " transform="matrix(0.661157,0,0,0.653644,0,0.0871525)"/>
<path style="fill:none;stroke-width:0.54;stroke-linecap:butt;stroke-linejoin:miter;stroke:rgb(20%,20%,20%);stroke-opacity:1;stroke-miterlimit:10;" d="M 4.502051 9.500162 L 31.4021 9.500162 L 31.4021 13.002164 L 4.502051 13.002164 Z M 4.502051 9.500162 " transform="matrix(0.661157,0,0,0.653644,0,0.0871525)"/>
<path style="fill:none;stroke-width:0.54;stroke-linecap:butt;stroke-linejoin:miter;stroke:rgb(20%,20%,20%);stroke-opacity:1;stroke-miterlimit:10;" d="M 4.502051 15.697391 L 31.4021 15.697391 L 31.4021 19.199394 L 4.502051 19.199394 Z M 4.502051 15.697391 " transform="matrix(0.661157,0,0,0.653644,0,0.0871525)"/>
<path style="fill:none;stroke-width:0.54;stroke-linecap:butt;stroke-linejoin:miter;stroke:rgb(20%,20%,20%);stroke-opacity:1;stroke-miterlimit:10;" d="M 4.502051 21.799003 L 31.4021 21.799003 L 31.4021 25.301006 L 4.502051 25.301006 Z M 4.502051 21.799003 " transform="matrix(0.661157,0,0,0.653644,0,0.0871525)"/>
<path style="fill:none;stroke-width:0.54;stroke-linecap:butt;stroke-linejoin:miter;stroke:rgb(20%,20%,20%);stroke-opacity:1;stroke-miterlimit:10;" d="M 4.502051 28.002209 L 31.4021 28.002209 L 31.4021 31.498235 L 4.502051 31.498235 Z M 4.502051 28.002209 " transform="matrix(0.661157,0,0,0.653644,0,0.0871525)"/>
<path style="fill:none;stroke-width:0.54;stroke-linecap:butt;stroke-linejoin:miter;stroke:rgb(20%,20%,20%);stroke-opacity:1;stroke-miterlimit:10;" d="M 4.502051 34.199439 L 31.4021 34.199439 L 31.4021 37.701441 L 4.502051 37.701441 Z M 4.502051 34.199439 " transform="matrix(0.661157,0,0,0.653644,0,0.0871525)"/>
<path style="fill:none;stroke-width:0.55;stroke-linecap:butt;stroke-linejoin:miter;stroke:rgb(20%,20%,20%);stroke-opacity:1;stroke-miterlimit:10;" d="M 4.502051 6.900552 L 31.4021 6.900552 L 31.4021 40.199457 L 4.502051 40.199457 Z M 4.502051 6.900552 " transform="matrix(0.661157,0,0,0.653644,0,0.0871525)"/>
<path style="fill:none;stroke-width:0.79;stroke-linecap:butt;stroke-linejoin:miter;stroke:rgb(20%,20%,20%);stroke-opacity:1;stroke-miterlimit:10;" d="M 32.902783 7.701351 L 32.902783 8.298963 " transform="matrix(0.661157,0,0,0.653644,0,0.0871525)"/>
<path style="fill:none;stroke-width:0.79;stroke-linecap:butt;stroke-linejoin:miter;stroke:rgb(20%,20%,20%);stroke-opacity:1;stroke-dasharray:1.092,1.092;stroke-miterlimit:10;" d="M 32.902783 9.398568 L 32.902783 28.498226 " transform="matrix(0.661157,0,0,0.653644,0,0.0871525)"/>
<path style="fill:none;stroke-width:0.79;stroke-linecap:butt;stroke-linejoin:miter;stroke:rgb(20%,20%,20%);stroke-opacity:1;stroke-miterlimit:10;" d="M 32.902783 29.00022 L 32.902783 29.597831 " transform="matrix(0.661157,0,0,0.653644,0,0.0871525)"/>
<path style="fill:none;stroke-width:1.128;stroke-linecap:butt;stroke-linejoin:miter;stroke:rgb(20%,20%,20%);stroke-opacity:1;stroke-miterlimit:10;" d="M 32.902783 30.601818 L 32.902783 33.900633 " transform="matrix(0.661157,0,0,0.653644,0,0.0871525)"/>
<path style="fill:none;stroke-width:0.54;stroke-linecap:butt;stroke-linejoin:miter;stroke:rgb(20%,20%,20%);stroke-opacity:1;stroke-miterlimit:10;" d="M 6.599463 3.302932 L 6.599463 6.697364 " transform="matrix(0.661157,0,0,0.653644,0,0.0871525)"/>
<path style="fill:none;stroke-width:0.54;stroke-linecap:butt;stroke-linejoin:miter;stroke:rgb(20%,20%,20%);stroke-opacity:1;stroke-miterlimit:10;" d="M 10.097119 3.302932 L 10.097119 6.697364 " transform="matrix(0.661157,0,0,0.653644,0,0.0871525)"/>
<path style="fill:none;stroke-width:0.462;stroke-linecap:butt;stroke-linejoin:miter;stroke:rgb(20%,20%,20%);stroke-opacity:1;stroke-miterlimit:10;" d="M 7.39707 6.900552 L 7.39707 9.500162 " transform="matrix(0.661157,0,0,0.653644,0,0.0871525)"/>
<path style="fill:none;stroke-width:0.462;stroke-linecap:butt;stroke-linejoin:miter;stroke:rgb(20%,20%,20%);stroke-opacity:1;stroke-miterlimit:10;" d="M 7.39707 12.90057 L 7.39707 15.50018 " transform="matrix(0.661157,0,0,0.653644,0,0.0871525)"/>
<path style="fill:none;stroke-width:0.462;stroke-linecap:butt;stroke-linejoin:miter;stroke:rgb(20%,20%,20%);stroke-opacity:1;stroke-miterlimit:10;" d="M 7.39707 19.0978 L 7.39707 21.697409 " transform="matrix(0.661157,0,0,0.653644,0,0.0871525)"/>
<path style="fill:none;stroke-width:0.462;stroke-linecap:butt;stroke-linejoin:miter;stroke:rgb(20%,20%,20%);stroke-opacity:1;stroke-miterlimit:10;" d="M 7.39707 25.301006 L 7.39707 27.799021 " transform="matrix(0.661157,0,0,0.653644,0,0.0871525)"/>
<path style="fill:none;stroke-width:0.462;stroke-linecap:butt;stroke-linejoin:miter;stroke:rgb(20%,20%,20%);stroke-opacity:1;stroke-miterlimit:10;" d="M 7.39707 31.498235 L 7.39707 34.002227 " transform="matrix(0.661157,0,0,0.653644,0,0.0871525)"/>
<path style="fill:none;stroke-width:0.462;stroke-linecap:butt;stroke-linejoin:miter;stroke:rgb(20%,20%,20%);stroke-opacity:1;stroke-miterlimit:10;" d="M 7.39707 37.701441 L 7.39707 40.199457 " transform="matrix(0.661157,0,0,0.653644,0,0.0871525)"/>
<path style="fill:none;stroke-width:0.462;stroke-linecap:butt;stroke-linejoin:miter;stroke:rgb(20%,20%,20%);stroke-opacity:1;stroke-miterlimit:10;" d="M 28.702051 6.900552 L 28.702051 9.500162 " transform="matrix(0.661157,0,0,0.653644,0,0.0871525)"/>
<path style="fill:none;stroke-width:0.462;stroke-linecap:butt;stroke-linejoin:miter;stroke:rgb(20%,20%,20%);stroke-opacity:1;stroke-miterlimit:10;" d="M 28.702051 12.90057 L 28.702051 15.50018 " transform="matrix(0.661157,0,0,0.653644,0,0.0871525)"/>
<path style="fill:none;stroke-width:0.462;stroke-linecap:butt;stroke-linejoin:miter;stroke:rgb(20%,20%,20%);stroke-opacity:1;stroke-miterlimit:10;" d="M 28.702051 19.0978 L 28.702051 21.697409 " transform="matrix(0.661157,0,0,0.653644,0,0.0871525)"/>
<path style="fill:none;stroke-width:0.462;stroke-linecap:butt;stroke-linejoin:miter;stroke:rgb(20%,20%,20%);stroke-opacity:1;stroke-miterlimit:10;" d="M 28.702051 25.301006 L 28.702051 27.799021 " transform="matrix(0.661157,0,0,0.653644,0,0.0871525)"/>
<path style="fill:none;stroke-width:0.462;stroke-linecap:butt;stroke-linejoin:miter;stroke:rgb(20%,20%,20%);stroke-opacity:1;stroke-miterlimit:10;" d="M 28.702051 31.498235 L 28.702051 34.002227 " transform="matrix(0.661157,0,0,0.653644,0,0.0871525)"/>
<path style="fill:none;stroke-width:0.462;stroke-linecap:butt;stroke-linejoin:miter;stroke:rgb(20%,20%,20%);stroke-opacity:1;stroke-miterlimit:10;" d="M 28.702051 37.701441 L 28.702051 40.199457 " transform="matrix(0.661157,0,0,0.653644,0,0.0871525)"/>
</g>
</svg>
